<?xml version="1.0" standalone="no"?>
<!DOCTYPE svg PUBLIC "-//W3C//DTD SVG 20010904//EN"
 "http://www.w3.org/TR/2001/REC-SVG-20010904/DTD/svg10.dtd">
<svg version="1.0" xmlns="http://www.w3.org/2000/svg"
 width="763.000000pt" height="763.000000pt" viewBox="0 0 763.000000 763.000000"
 preserveAspectRatio="xMidYMid meet">
<metadata>
Created by potrace 1.11, written by Peter Selinger 2001-2013
</metadata>
<g transform="translate(0.000000,763.000000) scale(0.100000,-0.100000)"
fill="#000000" stroke="none">
<path d="M1 7568 c-1 -55 2 -67 16 -71 16 -4 16 -5 1 -6 -15 -1 -17 -15 -17
-109 0 -74 4 -116 14 -135 12 -23 12 -27 -1 -27 -11 0 -14 -16 -14 -68 0 -62
2 -70 23 -80 22 -11 22 -11 1 -17 -18 -6 -20 -15 -22 -97 -2 -82 0 -91 20
-109 l23 -18 -22 -1 c-19 0 -23 -5 -23 -35 0 -27 4 -35 18 -35 16 -1 16 -1 0
-11 -21 -12 -24 -45 -5 -52 15 -6 15 -44 -1 -74 -7 -12 -12 -40 -12 -62 0 -34
3 -41 20 -41 11 0 20 -7 20 -15 0 -8 -9 -15 -19 -15 -17 0 -19 -7 -18 -77 l2
-78 38 -2 c20 -2 37 1 37 7 0 5 -6 10 -12 11 -7 0 -4 4 7 9 19 7 18 9 -7 19
-19 7 -26 15 -22 26 6 14 9 14 23 2 26 -24 58 -30 65 -12 3 8 1 15 -4 15 -6 0
-10 5 -10 11 0 5 4 8 9 5 4 -3 16 3 26 14 22 24 35 26 35 5 0 -8 -4 -15 -10
-15 -21 0 -9 -20 13 -21 21 -1 21 -1 -3 -8 -24 -7 -24 -7 -5 -18 19 -11 18
-12 -7 -18 -15 -4 -31 -5 -35 -2 -16 10 -42 -19 -36 -41 5 -22 23 -31 23 -12
0 6 7 10 15 10 8 0 14 4 12 9 -1 5 1 9 6 10 21 3 28 0 22 -9 -10 -17 4 -11 25
10 11 11 32 20 48 19 l27 -1 -30 -13 -30 -14 35 -2 c50 -4 63 -3 83 6 10 4 17
3 17 -3 0 -13 -41 -22 -103 -24 -39 0 -47 -4 -47 -19 0 -24 -9 -24 -26 -1 -11
16 -13 15 -23 -10 -14 -37 -31 -35 -61 7 -27 37 -43 40 -48 8 -2 -16 -9 -19
-28 -15 l-25 5 2 -88 2 -87 26 5 c15 3 33 2 41 -3 10 -6 3 -10 -22 -15 -35 -7
-35 -7 -33 -53 1 -26 6 -58 9 -72 7 -24 7 -24 -8 -6 -15 18 -16 14 -16 -62 l0
-81 70 2 c73 2 95 -15 27 -21 -37 -3 -43 -22 -7 -22 22 0 53 -28 45 -41 -9
-14 -25 -11 -25 5 0 14 -74 56 -98 56 -22 0 -13 -38 10 -42 32 -5 35 -28 4
-28 -26 0 -26 0 -26 -85 0 -67 3 -87 15 -91 8 -4 15 -11 15 -16 0 -6 -7 -7
-15 -4 -14 5 -16 -3 -13 -52 3 -50 6 -57 25 -60 31 -5 29 -22 -2 -22 -14 0
-25 -5 -25 -11 0 -5 4 -7 10 -4 5 3 10 2 10 -4 0 -5 -5 -13 -10 -16 -13 -8
-13 -55 0 -55 6 0 10 -9 10 -20 0 -11 -4 -20 -10 -20 -5 0 -10 -24 -10 -54 0
-47 3 -55 20 -58 27 -4 27 -22 0 -26 -23 -4 -29 -46 -7 -56 10 -5 10 -7 0 -12
-7 -3 -13 -23 -13 -43 0 -30 5 -40 24 -49 22 -10 24 -9 28 24 2 19 0 34 -5 34
-4 0 -4 8 2 17 6 11 6 24 0 35 -9 16 -5 18 37 18 40 0 45 2 34 15 -7 8 -21 15
-31 15 -11 0 -19 5 -19 10 0 6 4 10 9 10 5 0 17 7 25 16 24 23 32 11 32 -48
-1 -52 -2 -53 -30 -50 -19 3 -26 0 -21 -8 4 -6 13 -9 21 -6 10 4 14 -3 14 -25
0 -17 4 -28 9 -24 5 3 13 1 16 -5 4 -6 1 -9 -7 -8 -8 2 -13 -7 -13 -22 0 -22
5 -26 39 -30 44 -6 58 -25 26 -35 -27 -9 -21 -27 13 -39 33 -12 41 -5 39 38
-1 30 2 35 26 41 33 7 83 95 53 95 -14 0 -14 2 -1 10 8 5 11 12 7 16 -4 4 -13
2 -19 -4 -7 -7 -20 -12 -29 -12 -10 0 -21 -5 -25 -11 -5 -8 1 -10 18 -6 23 6
25 4 20 -18 -2 -14 -9 -25 -16 -26 -90 -7 -106 -6 -106 8 0 10 11 12 48 8 39
-5 44 -4 32 7 -19 17 -19 62 0 66 9 1 21 12 28 23 12 18 11 19 -15 13 -24 -6
-26 -5 -16 8 7 8 10 18 6 21 -3 4 -1 7 5 7 7 0 12 -3 12 -7 0 -5 11 -9 25 -9
14 -1 25 1 25 5 -1 12 -38 51 -49 51 -6 0 -11 5 -11 10 0 6 5 10 10 10 19 0
25 2 37 12 19 15 16 28 -7 28 -11 0 -20 -4 -20 -10 0 -20 -27 -9 -38 15 -6 14
-16 25 -22 25 -6 0 -8 -10 -4 -25 8 -31 -8 -33 -36 -3 -21 23 -27 44 -10 33 6
-3 10 0 10 7 0 16 36 49 44 41 2 -3 9 10 14 28 7 26 6 37 -4 45 -22 18 -16 26
14 20 32 -7 47 1 56 32 6 19 4 22 -17 22 -14 0 -27 7 -31 15 -3 8 -15 15 -27
15 -16 0 -19 -3 -11 -12 5 -7 13 -23 16 -35 5 -16 2 -23 -14 -28 -11 -3 -20
-13 -20 -21 0 -10 -12 -14 -40 -14 -22 0 -40 5 -40 10 0 6 -12 11 -27 11 -25
2 -25 2 -5 6 36 7 26 48 -10 48 -47 -1 -31 20 17 22 30 1 43 -2 41 -10 -1 -7
-1 -9 1 -4 3 4 17 7 33 7 20 0 31 6 35 20 3 11 12 20 18 20 7 0 19 5 27 10 37
24 -52 42 -90 18 -15 -10 -22 -10 -32 0 -6 6 -20 12 -30 12 -10 0 -18 5 -18
10 0 6 -14 10 -32 10 -17 0 -29 3 -26 6 9 9 139 11 144 2 9 -14 42 -9 48 8 5
12 9 14 20 5 10 -9 16 -7 26 4 17 21 -2 44 -22 27 -7 -5 -17 -11 -23 -12 -5
-2 -16 -5 -23 -7 -6 -3 -20 -2 -30 3 -13 6 -10 9 16 12 37 4 39 9 15 29 -16
13 -13 13 29 8 28 -4 49 -2 53 5 3 5 2 10 -3 10 -5 0 -9 11 -9 25 0 14 3 25 8
25 5 0 9 5 9 10 0 6 -11 8 -25 4 -23 -6 -25 -4 -25 29 0 19 -6 37 -12 39 -7 3
0 13 17 24 31 20 31 20 85 22 35 2 46 13 66 65 3 9 16 17 28 17 21 1 21 1 2
15 -13 10 -23 12 -30 5 -16 -16 -26 -12 -26 10 0 12 7 20 18 20 14 0 18 9 18
44 1 34 -2 43 -12 39 -8 -3 -14 -11 -14 -19 0 -16 -26 -19 -35 -4 -4 6 -15 5
-30 -2 -19 -8 -28 -8 -40 2 -8 7 -21 10 -29 7 -8 -3 -27 -2 -43 3 -15 4 -20 9
-11 9 9 1 18 6 20 12 6 18 66 17 73 0 6 -14 7 -14 16 1 24 44 -23 63 -68 28
-27 -21 -63 -27 -63 -10 0 6 8 10 18 10 11 0 27 9 37 20 10 11 29 20 42 20 13
0 21 4 18 10 -7 11 25 84 33 75 3 -3 -1 -16 -8 -30 -12 -22 -12 -28 3 -42 20
-20 35 -10 18 11 -10 11 -9 19 5 35 10 11 21 18 26 15 4 -3 8 1 8 10 0 8 5 16
12 18 6 2 8 10 4 16 -10 17 -24 15 -22 -2 0 -8 -3 -16 -9 -18 -5 -2 -11 9 -12
25 -1 15 3 27 10 27 31 0 57 -14 57 -29 0 -17 33 -51 50 -51 14 0 12 -17 -3
-23 -6 -3 -33 -2 -59 1 -40 4 -48 2 -48 -12 0 -9 5 -16 11 -16 6 0 9 -6 6 -14
-15 -38 64 -49 107 -15 20 15 24 25 17 32 -13 13 -15 30 -2 22 13 -7 41 -64
41 -82 0 -12 -27 -17 -92 -16 -10 0 -18 -4 -18 -9 0 -4 5 -8 10 -8 6 0 10 -7
10 -15 0 -8 -5 -15 -11 -15 -13 0 -3 -50 13 -65 8 -7 9 -5 5 8 -7 19 0 21 22
8 12 -8 12 -12 -2 -26 -21 -21 -22 -36 -2 -29 8 4 15 10 15 15 0 5 7 9 15 9 8
0 15 -4 15 -10 0 -5 7 -7 15 -3 14 5 14 8 -2 26 -18 20 -17 20 10 13 15 -3 26
-3 25 1 0 5 2 16 7 26 5 12 2 24 -10 37 -16 18 -16 19 4 31 16 10 18 16 8 27
-9 11 -7 17 7 28 18 13 18 14 -5 33 -21 18 -21 20 -6 21 10 0 16 4 12 9 -3 6
-23 10 -44 9 -46 0 -77 15 -86 43 -9 28 7 43 47 43 42 1 47 21 6 22 -18 0 -42
4 -53 8 -16 6 -17 6 -5 -3 11 -8 12 -13 3 -22 -16 -16 -47 -3 -39 17 4 10 -1
22 -10 29 -15 11 -13 13 19 19 40 8 48 21 18 31 -14 4 -22 19 -26 49 -10 63
-4 79 31 88 40 10 63 35 41 44 -24 9 -41 68 -27 94 9 17 14 18 31 9 24 -12 34
-6 26 16 -4 8 -16 15 -27 15 -29 0 -25 28 5 36 19 5 24 11 20 25 -8 23 -5 23
31 4 16 -8 44 -15 62 -15 32 0 33 -1 32 -37 -1 -21 -2 -55 -1 -75 1 -36 3 -37
31 -34 16 2 35 -3 41 -10 8 -9 31 -12 82 -9 39 2 74 0 77 -5 4 -6 15 -4 27 5
23 16 26 60 3 60 -8 0 -16 5 -17 10 -2 6 9 10 24 10 18 0 28 -6 29 -15 2 -28
4 -29 34 -19 35 13 41 34 7 25 -17 -4 -25 0 -32 17 -8 18 -17 22 -47 20 -30
-2 -36 1 -31 13 4 12 15 15 40 11 24 -4 36 -2 40 9 3 8 19 14 39 14 19 0 34 5
34 11 0 7 -9 9 -21 6 -11 -3 -27 -3 -35 0 -17 6 -19 33 -1 33 7 0 5 5 -5 11
-11 6 -15 16 -11 27 4 13 2 13 -10 -3 -11 -14 -12 -24 -5 -32 8 -10 2 -13 -25
-13 -29 0 -34 3 -30 18 3 13 -5 25 -23 36 -19 14 -23 20 -14 26 18 11 40 1 34
-15 -3 -7 1 -15 8 -17 19 -7 43 5 43 21 0 10 16 16 54 19 53 4 54 3 47 -21 -3
-14 -9 -32 -12 -41 -3 -9 -1 -16 6 -16 6 0 9 4 5 9 -9 15 30 22 59 12 15 -6
26 -7 26 -1 0 5 -9 12 -20 15 -11 3 -20 10 -20 15 0 5 -7 7 -16 3 -14 -5 -16
-2 -10 20 6 25 5 26 -29 20 -40 -6 -47 8 -12 25 l22 11 -24 -2 c-22 -2 -24 2
-27 41 -1 23 2 42 6 42 4 0 6 8 3 18 -2 10 3 24 11 31 9 8 16 11 16 8 0 -4 16
5 36 18 55 38 87 30 60 -13 -4 -7 -3 -19 4 -27 6 -8 9 -19 5 -25 -13 -21 -25
-9 -31 30 -4 22 -10 40 -15 40 -5 0 -6 -7 -3 -15 4 -9 -1 -18 -12 -22 -11 -5
-19 -18 -20 -31 -1 -20 3 -22 24 -17 17 4 34 -2 57 -20 19 -14 43 -25 53 -25
11 0 22 -5 24 -10 2 -6 27 -11 56 -13 44 -3 52 -1 52 14 0 22 29 33 36 14 4
-9 1 -22 -6 -30 -14 -17 -8 -31 9 -20 6 3 11 24 11 45 0 29 -4 38 -14 34 -23
-9 -14 54 13 82 35 37 61 32 61 -11 0 -28 -4 -35 -19 -35 -11 0 -23 -4 -26
-10 -4 -6 7 -10 24 -10 29 0 31 2 31 40 0 22 5 40 10 40 6 0 10 5 10 10 0 6
-9 10 -19 10 -11 0 -23 5 -26 11 -5 7 -13 5 -24 -5 -22 -20 -49 -6 -28 15 7 8
12 20 9 27 -2 6 1 12 7 12 6 0 11 -7 11 -15 0 -8 5 -15 10 -15 6 0 10 7 10 15
0 8 6 15 14 15 8 0 16 7 20 15 3 9 19 15 41 15 19 0 35 5 35 10 0 6 -15 10
-34 10 -19 0 -38 5 -41 10 -3 6 -24 10 -46 10 -35 0 -39 -3 -39 -25 0 -18 -4
-23 -16 -18 -11 4 -22 -1 -30 -12 -20 -27 -17 1 2 30 9 14 23 25 30 25 8 0 23
9 35 21 20 20 21 20 34 2 13 -17 14 -17 30 2 14 17 16 17 11 3 -7 -22 22 -25
30 -3 9 21 21 19 27 -6 4 -14 11 -20 20 -16 10 4 17 -4 21 -25 8 -40 1 -48
-41 -48 -46 0 -38 -10 10 -12 37 -1 42 -18 6 -18 -10 0 -19 -3 -19 -7 0 -13
58 -9 71 5 10 9 10 15 2 23 -6 6 -9 17 -7 24 3 7 1 16 -5 20 -18 11 -12 28 8
22 14 -3 18 -1 14 9 -3 8 0 14 6 14 6 0 11 7 11 15 0 9 7 18 15 21 19 8 19 24
0 24 -8 0 -15 5 -15 10 0 6 7 10 15 10 11 0 15 11 15 39 0 33 -4 40 -22 43
-15 2 -24 11 -26 26 -3 20 0 22 45 20 43 -1 44 -2 11 -5 -48 -5 -50 -23 -4
-23 19 0 38 -4 41 -10 3 -5 2 -10 -2 -10 -5 0 -8 -12 -7 -27 1 -16 3 -35 3
-43 1 -12 4 -11 12 3 6 9 8 26 4 36 -13 42 14 62 55 41 11 -5 29 -15 41 -21
12 -6 24 -8 27 -5 3 3 0 6 -7 6 -6 0 -11 8 -9 18 2 11 -3 17 -15 16 -29 -3
-19 14 11 18 15 2 25 8 22 13 -3 6 -11 9 -19 8 -7 0 -30 8 -49 19 l-36 20 -18
-22 c-16 -20 -25 -22 -71 -18 -66 7 -77 2 -77 -29 0 -13 -7 -31 -15 -40 -14
-13 -13 -18 7 -45 12 -17 30 -33 40 -36 18 -4 26 -42 9 -42 -5 0 -23 14 -40
31 -17 17 -31 26 -31 20 0 -6 -7 -8 -16 -4 -11 4 -13 13 -8 37 3 17 11 37 17
44 15 18 -12 35 -31 20 -9 -8 -16 -8 -24 0 -21 21 -38 14 -35 -15 2 -16 7 -28
13 -28 5 0 8 3 7 7 -2 5 4 8 12 8 9 0 16 -10 16 -25 2 -33 3 -36 17 -62 8 -15
9 -24 1 -28 -13 -9 -20 -2 -23 21 -4 27 -26 29 -26 2 -1 -20 -2 -21 -11 -5 -5
9 -19 17 -29 17 -10 0 -24 -8 -29 -17 -10 -17 -10 -17 -11 -1 0 10 9 23 20 30
11 7 20 16 20 20 0 5 -9 8 -20 8 -15 0 -20 7 -20 27 0 25 1 25 18 10 23 -21
33 -22 25 -1 -3 9 -15 20 -27 24 -21 9 -21 9 2 9 13 1 22 7 22 16 0 14 12 19
33 16 4 0 7 4 7 9 0 6 11 10 25 10 14 0 25 -4 25 -10 0 -5 7 -10 15 -10 8 0
15 5 15 10 0 6 6 10 14 10 7 0 19 7 26 15 7 8 21 15 31 15 11 0 28 6 39 13 17
10 22 9 29 -2 6 -9 16 -11 27 -6 13 5 15 9 7 12 -24 9 -13 25 11 19 14 -3 28
-1 32 5 4 7 24 9 55 5 39 -5 49 -4 49 7 0 19 -115 33 -135 17 -10 -9 -15 -6
-20 9 -7 23 -16 26 -32 10 -8 -8 -13 -8 -17 0 -10 15 -267 15 -263 0 1 -6 -4
-14 -11 -16 -8 -3 -10 1 -6 11 5 13 -2 16 -37 15 -24 0 -38 -3 -32 -6 19 -7
16 -23 -9 -44 -25 -20 -53 -24 -63 -9 -3 6 5 10 18 10 23 0 24 2 14 25 -12 25
-41 33 -52 15 -4 -7 -12 -7 -25 0 -29 16 -537 13 -544 -2 -5 -10 -7 -10 -12 0
-4 8 -30 12 -80 12 -72 0 -74 -1 -74 -25 0 -26 -23 -35 -36 -13 -4 7 -3 8 4 4
8 -4 12 0 12 11 0 13 -9 19 -30 20 -17 1 -30 -3 -30 -9 0 -10 -16 -8 -52 7
-14 5 -18 2 -18 -15 0 -12 -7 -28 -15 -36 -13 -14 -15 -11 -15 20 0 29 -4 36
-20 36 -13 0 -20 -7 -20 -19 0 -11 -5 -23 -10 -26 -6 -4 -10 5 -10 19 0 25 -1
26 -71 24 l-71 -1 6 -27 c8 -43 -7 -45 -26 -3 l-17 38 0 -67z m1469 31 c0 -5
-7 -9 -15 -9 -8 0 -15 7 -15 15 0 9 6 12 15 9 8 -4 15 -10 15 -15z m-180 -5
c0 -8 -5 -12 -10 -9 -6 4 -8 11 -5 16 9 14 15 11 15 -7z m285 6 c3 -5 -1 -10
-10 -10 -9 0 -13 5 -10 10 3 6 8 10 10 10 2 0 7 -4 10 -10z m-518 -6 c-3 -3
-12 -4 -19 -1 -8 3 -5 6 6 6 11 1 17 -2 13 -5z m563 -15 c0 -5 -7 -9 -15 -9
-15 0 -20 12 -9 23 8 8 24 -1 24 -14z m-230 1 c0 -5 -7 -10 -15 -10 -8 0 -15
5 -15 10 0 6 7 10 15 10 8 0 15 -4 15 -10z m-1275 -10 c4 -6 -5 -10 -20 -10
-15 0 -24 4 -20 10 3 6 12 10 20 10 8 0 17 -4 20 -10z m385 0 c-19 -13 -30
-13 -30 0 0 6 10 10 23 10 18 0 19 -2 7 -10z m45 -1 c11 -17 -1 -21 -15 -4 -8
9 -8 15 -2 15 6 0 14 -5 17 -11z m205 -4 c0 -5 -13 -11 -30 -12 -20 -2 -30 2
-30 11 0 9 11 13 30 12 17 -1 30 -6 30 -11z m270 -10 c0 -8 -4 -15 -10 -15 -5
0 -10 7 -10 15 0 8 5 15 10 15 6 0 10 -7 10 -15z m98 3 c-2 -6 -10 -14 -16
-16 -7 -2 -10 2 -6 12 7 18 28 22 22 4z m-752 -11 c12 -11 -69 -12 -84 0 -15
11 -10 12 31 9 26 -2 50 -6 53 -9z m809 3 c3 -5 -3 -10 -15 -10 -12 0 -18 5
-15 10 3 6 10 10 15 10 5 0 12 -4 15 -10z m-980 -20 c0 -21 -59 -19 -63 3 -3
14 3 16 30 14 21 -2 33 -8 33 -17z m1075 10 c0 -5 -6 -10 -14 -10 -8 0 -18 5
-21 10 -3 6 3 10 14 10 12 0 21 -4 21 -10z m-863 -6 c-3 -3 -12 -4 -19 -1 -8
3 -5 6 6 6 11 1 17 -2 13 -5z m153 -15 c-7 -11 -14 -19 -16 -16 -7 7 7 37 17
37 6 0 5 -9 -1 -21z m-456 5 c12 -4 16 -20 16 -54 0 -50 10 -67 33 -53 16 10
87 11 81 1 -3 -4 -12 -8 -20 -8 -19 0 -18 -29 1 -36 23 -9 18 -25 -7 -23 -32
3 -88 -23 -88 -40 0 -10 -5 -8 -16 8 -14 19 -22 22 -50 16 -21 -3 -34 -2 -34
5 0 5 9 10 20 10 22 0 27 18 7 26 -18 6 -19 44 -1 44 8 0 13 -5 12 -12 -2 -6
6 -14 17 -16 16 -4 17 -2 7 11 -10 11 -9 17 3 27 20 16 19 66 -1 74 -8 3 -12
10 -9 16 7 12 8 12 29 4z m136 2 c0 -11 -19 -15 -25 -6 -3 5 1 10 9 10 9 0 16
-2 16 -4z m31 -9 c-1 -12 -15 -9 -19 4 -3 6 1 10 8 8 6 -3 11 -8 11 -12z m942
6 c10 -9 -25 -32 -40 -26 -10 4 -9 9 4 19 21 15 27 17 36 7z m167 -13 c0 -5
-9 -10 -19 -10 -11 0 -22 -6 -24 -12 -4 -10 -8 -9 -16 2 -8 12 -11 7 -11 -22
0 -21 -4 -38 -10 -38 -5 0 -10 16 -10 35 0 28 5 38 23 45 30 12 67 12 67 0z
m-544 -22 c-3 -13 -6 -34 -6 -48 -1 -22 -2 -23 -11 -7 -5 9 -8 21 -4 26 3 5 1
13 -5 16 -8 5 -7 11 1 21 18 21 32 17 25 -8z m249 12 c-3 -5 -10 -10 -16 -10
-5 0 -9 5 -9 10 0 6 7 10 16 10 8 0 12 -4 9 -10z m608 -16 c-4 -10 -9 -12 -15
-6 -12 12 -1 35 12 27 5 -3 6 -13 3 -21z m-1243 -4 c0 -11 7 -20 15 -20 8 0
15 -7 15 -15 0 -19 -14 -19 -34 1 -18 17 -22 54 -6 54 6 0 10 -9 10 -20z m80
0 c0 -5 -6 -10 -14 -10 -8 0 -18 5 -21 10 -3 6 3 10 14 10 12 0 21 -4 21 -10z
m212 -2 c-9 -9 -15 -9 -24 0 -9 9 -7 12 12 12 19 0 21 -3 12 -12z m477 -14
c-7 -9 -8 -18 -2 -26 19 -25 23 -48 8 -48 -8 0 -15 7 -15 15 0 9 -7 18 -15 21
-20 8 -19 23 3 44 20 20 39 15 21 -6z m-814 6 c3 -5 -1 -10 -10 -10 -9 0 -13
5 -10 10 3 6 8 10 10 10 2 0 7 -4 10 -10z m663 -65 c-14 -31 -40 -29 -44 3 -3
19 1 22 26 22 28 0 29 -1 18 -25z m478 17 c15 -10 23 -37 16 -49 -4 -6 -15 4
-24 23 -17 33 -14 42 8 26z m-1120 -27 c13 -14 28 -25 34 -25 5 0 10 -7 10
-15 0 -22 -52 -15 -58 7 -2 10 -8 18 -13 18 -5 0 -9 9 -9 20 0 26 8 25 36 -5z
m774 -2 c0 -20 -24 -11 -28 10 -2 12 1 15 12 11 9 -3 16 -13 16 -21z m90 19
c0 -14 -11 -21 -26 -15 -8 3 -11 9 -8 14 7 11 34 12 34 1z m-1002 -41 c-7 -11
-17 -21 -22 -21 -4 0 -2 7 5 17 12 14 12 17 0 21 -11 4 -11 6 0 13 21 13 32
-6 17 -30z m287 29 c3 -5 2 -10 -4 -10 -5 0 -13 5 -16 10 -3 6 -2 10 4 10 5 0
13 -4 16 -10z m70 0 c3 -5 2 -10 -4 -10 -5 0 -13 5 -16 10 -3 6 -2 10 4 10 5
0 13 -4 16 -10z m120 0 c3 -5 2 -10 -4 -10 -5 0 -13 5 -16 10 -3 6 -2 10 4 10
5 0 13 -4 16 -10z m320 -10 c3 -5 1 -10 -4 -10 -6 0 -11 5 -11 10 0 6 2 10 4
10 3 0 8 -4 11 -10z m-715 -10 c0 -5 -4 -10 -10 -10 -5 0 -10 5 -10 10 0 6 5
10 10 10 6 0 10 -4 10 -10z m178 -19 c3 -20 1 -21 -16 -10 -11 7 -18 19 -15
26 8 20 27 10 31 -16z m162 9 c0 -5 -9 -10 -21 -10 -11 0 -17 5 -14 10 3 6 13
10 21 10 8 0 14 -4 14 -10z m-60 -10 c0 -5 -7 -10 -15 -10 -8 0 -15 5 -15 10
0 6 7 10 15 10 8 0 15 -4 15 -10z m640 0 c0 -5 -6 -10 -14 -10 -8 0 -18 5 -21
10 -3 6 3 10 14 10 12 0 21 -4 21 -10z m-55 -10 c3 -5 -1 -10 -9 -10 -9 0 -16
5 -16 10 0 6 4 10 9 10 6 0 13 -4 16 -10z m-60 -19 c-3 -11 -1 -22 5 -26 12
-7 14 -25 3 -25 -5 0 -14 4 -21 9 -15 9 -6 61 10 61 5 0 7 -9 3 -19z m-475 -1
c0 -5 -5 -10 -11 -10 -5 0 -7 5 -4 10 3 6 8 10 11 10 2 0 4 -4 4 -10z m-343
-6 c-3 -3 -12 -4 -19 -1 -8 3 -5 6 6 6 11 1 17 -2 13 -5z m-143 -19 c-4 -8
-12 -15 -19 -15 -7 0 -18 7 -25 15 -11 13 -8 15 18 15 24 0 30 -4 26 -15z
m914 -14 c0 -14 5 -39 11 -54 14 -35 14 -47 1 -47 -5 0 -10 8 -10 18 -1 24
-35 62 -55 62 -12 0 -15 5 -11 16 3 9 6 19 6 22 0 4 13 7 29 8 26 1 30 -3 29
-25z m111 16 c11 -14 5 -27 -12 -27 -5 0 -7 6 -4 14 3 8 1 17 -6 20 -8 3 -8 5
-1 5 6 1 17 -5 23 -12z m-1182 -19 c-3 -8 -6 -5 -6 6 -1 11 2 17 5 13 3 -3 4
-12 1 -19z m303 -8 c0 -5 -14 -8 -30 -7 -44 5 -49 17 -7 17 21 0 37 -4 37 -10z
m345 -10 c-3 -5 -13 -10 -21 -10 -8 0 -12 5 -9 10 3 6 13 10 21 10 8 0 12 -4
9 -10z m302 4 c-3 -3 -12 -4 -19 -1 -8 3 -5 6 6 6 11 1 17 -2 13 -5z m-854
-41 c-3 -7 -11 -13 -17 -13 -23 0 -26 13 -8 30 18 18 34 7 25 -17z m105 28
c10 -6 8 -10 -8 -14 -12 -3 -19 -10 -15 -16 7 -13 -42 -38 -52 -27 -7 7 8 20
32 29 6 3 7 8 3 12 -4 4 -14 3 -21 -3 -16 -14 -28 -6 -20 14 6 15 60 19 81 5z
m528 -18 c-10 -10 -19 5 -10 18 6 11 8 11 12 0 2 -7 1 -15 -2 -18z m124 17 c0
-5 -5 -10 -11 -10 -5 0 -7 5 -4 10 3 6 8 10 11 10 2 0 4 -4 4 -10z m-295 -48
c1 -23 0 -42 -2 -42 -2 0 -13 8 -24 19 -16 15 -18 23 -9 45 15 39 34 27 35
-22z m132 26 c-2 -19 4 -24 27 -26 l29 -4 -28 -14 c-29 -15 -57 -18 -68 -8 -7
7 25 73 35 74 4 0 7 -10 5 -22z m486 -2 c10 -25 1 -32 -19 -16 -13 12 -17 11
-24 0 -12 -19 -20 -9 -14 16 7 26 46 26 57 0z m-793 4 c0 -5 -16 -10 -35 -10
-19 0 -35 5 -35 10 0 6 16 10 35 10 19 0 35 -4 35 -10z m-155 -30 c-4 -13 -2
-20 6 -20 27 0 -4 -14 -36 -16 -25 -2 -35 1 -35 11 0 8 9 15 20 15 13 0 18 5
14 15 -4 10 0 15 16 15 17 0 20 -4 15 -20z m389 -28 c-18 -17 -46 -8 -38 12 7
18 36 26 46 12 3 -5 0 -16 -8 -24z m221 17 c-3 -5 -16 -7 -28 -5 -34 7 -34 7
-7 15 28 9 43 4 35 -10z m198 7 c9 -7 17 -16 17 -19 0 -10 -46 -16 -73 -9 -33
9 -36 25 -5 34 34 9 41 9 61 -6z m-593 -22 c0 -8 -7 -14 -15 -14 -15 0 -21 21
-9 33 10 9 24 -2 24 -19z m-370 6 c0 -13 -11 -16 -68 -24 -50 -7 -49 8 1 23
44 13 67 13 67 1z m310 -5 c0 -8 -5 -15 -11 -15 -5 0 -7 5 -4 10 3 6 -3 10
-15 10 -12 0 -19 -4 -15 -9 8 -15 -15 -25 -28 -12 -6 6 -20 12 -31 12 -29 2
30 16 72 18 22 1 32 -4 32 -14z m-260 -16 c0 -5 -7 -9 -15 -9 -15 0 -20 12 -9
23 8 8 24 -1 24 -14z m645 11 c3 -5 1 -10 -4 -10 -6 0 -11 5 -11 10 0 6 2 10
4 10 3 0 8 -4 11 -10z m135 0 c0 -5 -9 -10 -21 -10 -11 0 -17 5 -14 10 3 6 13
10 21 10 8 0 14 -4 14 -10z m250 -20 c0 -11 -4 -20 -10 -20 -5 0 -10 9 -10 20
0 11 5 20 10 20 6 0 10 -9 10 -20z m-896 4 c8 -3 12 -12 9 -20 -4 -11 4 -13
40 -8 45 6 75 -10 42 -23 -10 -3 -21 0 -25 7 -4 7 -13 9 -19 6 -21 -14 -71 4
-71 25 0 21 1 22 24 13z m241 -27 c0 -16 6 -22 22 -21 17 0 24 -8 35 -43 14
-48 28 -57 28 -18 0 14 5 25 10 25 6 0 10 -4 10 -9 0 -11 55 -22 75 -15 23 9
7 24 -26 24 -20 0 -29 4 -26 13 2 6 15 11 28 9 17 -2 20 0 11 6 -11 7 -9 10 7
15 12 3 24 1 27 -4 3 -6 16 -4 30 5 26 18 54 21 54 6 0 -5 11 -10 25 -10 14 0
25 5 25 10 0 21 27 9 44 -21 16 -27 17 -36 6 -75 -12 -42 -29 -53 -38 -26 -2
7 4 12 13 12 14 0 15 3 6 14 -9 10 -9 20 -2 33 7 15 5 22 -12 32 -19 12 -23
11 -35 -8 -16 -23 -33 -28 -29 -8 1 7 -12 13 -35 15 -39 3 -44 -2 -40 -50 1
-10 -3 -18 -8 -18 -6 0 -10 -15 -10 -32 1 -30 2 -31 14 -15 7 9 18 17 25 17 6
0 11 7 11 15 0 19 11 19 36 0 17 -13 18 -14 1 -15 -20 0 -45 -52 -28 -58 21
-7 11 -22 -15 -22 -19 0 -25 4 -21 15 7 17 -9 30 -18 15 -9 -14 -35 -12 -35 3
0 6 -5 19 -10 27 -8 12 -12 12 -18 2 -5 -7 -16 -10 -27 -6 -17 7 -17 8 1 21
17 12 17 13 -3 13 -31 0 -49 -32 -58 -108 -4 -30 -13 -38 -26 -25 -6 6 -7 22
-3 38 4 17 9 22 14 15 9 -15 22 82 14 104 -4 11 -14 14 -33 10 -19 -4 -22 -3
-11 5 8 5 11 13 8 16 -4 4 -17 0 -30 -9 -26 -19 -38 -20 -38 -5 0 5 5 7 10 4
6 -3 10 -1 10 4 0 14 -17 14 -25 1 -3 -5 -15 -10 -26 -10 -10 0 -19 -4 -19
-10 0 -5 5 -10 10 -10 6 0 10 -19 11 -42 1 -24 4 -54 8 -67 7 -28 31 -41 31
-18 0 16 35 13 45 -3 6 -9 -50 -40 -71 -40 -8 0 -11 -6 -8 -15 5 -12 10 -13
20 -4 8 6 14 8 14 4 0 -4 7 -2 15 5 17 14 36 5 28 -15 -3 -9 -18 -15 -39 -15
-19 0 -34 -4 -34 -10 0 -5 -7 -10 -15 -10 -8 0 -15 7 -15 15 0 22 -21 18 -27
-5 -6 -22 -43 -28 -43 -7 0 7 7 23 16 35 8 12 12 27 9 32 -3 6 2 10 12 10 43
0 58 46 18 56 -23 6 -23 7 -8 30 15 23 14 24 -3 18 -16 -6 -17 -5 -6 7 10 11
18 49 9 49 -1 0 -17 -4 -35 -9 -35 -11 -66 -5 -56 10 3 5 -2 9 -10 9 -9 0 -16
5 -16 10 0 6 7 10 15 10 8 0 15 5 15 10 0 6 5 10 10 10 6 0 10 -9 10 -20 0
-25 30 -25 112 -1 56 15 63 23 60 61 -2 23 7 44 16 36 4 -5 7 -18 7 -29z m692
-4 c-3 -10 -5 -4 -5 12 0 17 2 24 5 18 2 -7 2 -21 0 -30z m43 17 c0 -11 -4
-20 -10 -20 -5 0 -10 9 -10 20 0 11 5 20 10 20 6 0 10 -9 10 -20z m-637 -17
c-29 -24 -35 -23 -40 7 -2 15 3 18 33 17 l35 -2 -28 -22z m-618 -3 c3 -5 1
-10 -4 -10 -6 0 -11 5 -11 10 0 6 2 10 4 10 3 0 8 -4 11 -10z m191 -25 c-3 -9
-12 -12 -22 -8 -9 3 -20 0 -24 -8 -5 -7 -12 -10 -16 -6 -10 10 28 38 44 32 6
-2 12 3 13 13 0 11 2 12 6 4 3 -7 2 -19 -1 -27z m41 -2 c-3 -10 -5 -4 -5 12 0
17 2 24 5 18 2 -7 2 -21 0 -30z m-149 21 l31 -6 -27 -29 c-32 -34 -46 -37 -39
-9 4 15 0 20 -14 20 -10 0 -19 7 -19 15 0 16 19 19 68 9z m379 -11 c3 -7 -4
-9 -16 -6 -12 3 -18 9 -15 15 7 11 26 6 31 -9z m728 -11 c-26 -6 -16 -21 17
-24 17 -2 33 -9 35 -15 3 -9 -7 -11 -37 -8 -38 3 -41 2 -37 -16 4 -14 0 -19
-13 -19 -24 0 -34 17 -35 57 0 25 4 33 18 33 9 0 17 4 17 9 0 5 11 4 25 -2 17
-8 20 -13 10 -15z m-320 -22 c3 -5 1 -10 -4 -10 -6 0 -11 5 -11 10 0 6 2 10 4
10 3 0 8 -4 11 -10z m-655 -19 c0 -5 -7 -12 -16 -15 -24 -9 -28 -7 -14 9 14
17 30 20 30 6z m-60 -21 c12 -8 9 -10 -11 -10 -15 0 -41 -3 -58 -6 -20 -4 -31
-2 -31 4 0 6 6 9 14 6 8 -3 23 -1 33 5 23 13 34 13 53 1z m93 -36 c-6 -16 -31
-18 -52 -5 -11 7 -9 10 8 16 11 3 21 11 21 17 0 7 5 6 14 -2 8 -6 12 -18 9
-26z m995 9 c-3 -26 -7 -28 -55 -31 -30 -2 -53 1 -53 7 0 5 -9 7 -20 4 -14 -4
-20 0 -20 12 0 13 5 15 18 9 9 -4 36 -9 60 -12 40 -4 48 1 43 31 0 4 6 7 15 7
11 0 14 -8 12 -27z m-1231 -24 c1 -11 -2 -17 -8 -14 -5 4 -9 13 -9 21 0 8 -4
14 -10 14 -5 0 -10 5 -10 10 0 19 36 -12 37 -31z m536 24 c-13 -2 -33 -2 -45
0 -13 2 -3 4 22 4 25 0 35 -2 23 -4z m-183 -12 c0 -5 -7 -12 -16 -15 -24 -9
-28 -7 -14 9 14 17 30 20 30 6z m-270 -11 c0 -5 -4 -10 -10 -10 -5 0 -10 5
-10 10 0 6 5 10 10 10 6 0 10 -4 10 -10z m784 -6 c16 -6 23 -34 9 -34 -11 1
-43 26 -43 34 0 8 14 8 34 0z m-636 -26 c-3 -7 -13 -15 -24 -17 -16 -3 -17 -1
-5 13 16 19 34 21 29 4z m393 2 c24 -14 25 -30 0 -30 -21 0 -45 23 -34 33 8 9
11 9 34 -3z m-516 -31 c0 -10 -15 -15 -55 -17 -44 -2 -51 0 -37 9 10 6 27 9
38 6 10 -3 19 -1 19 4 0 5 -4 9 -10 9 -5 0 -10 4 -10 9 0 5 12 6 28 2 15 -4
27 -14 27 -22z m413 24 c-10 -2 -26 -2 -35 0 -10 3 -2 5 17 5 19 0 27 -2 18
-5z m-238 -24 c0 -24 -23 -21 -28 4 -2 10 3 17 12 17 10 0 16 -9 16 -21z m38
7 c-7 -8 -15 -12 -17 -11 -5 6 10 25 20 25 5 0 4 -6 -3 -14z m-171 -85 c1 -46
-2 -59 -17 -69 -16 -10 -20 -8 -25 9 -4 12 -2 26 4 32 16 16 13 47 -4 47 -8 0
-15 7 -15 16 0 13 3 14 14 5 11 -9 15 -7 19 11 10 36 22 10 24 -51z m233 59
c0 -5 -7 -10 -15 -10 -8 0 -15 5 -15 10 0 6 7 10 15 10 8 0 15 -4 15 -10z
m325 -5 c0 -5 -19 -11 -42 -13 -40 -3 -53 5 -36 22 11 10 78 3 78 -9z m-470
-25 c3 -5 1 -19 -5 -30 -9 -17 -8 -20 10 -20 11 0 20 -4 20 -10 0 -5 -20 -10
-44 -10 -25 0 -48 5 -51 10 -4 6 5 10 20 10 31 0 29 20 -3 35 -12 5 -22 13
-22 17 0 12 68 10 75 -2z m409 -24 c10 -17 12 -27 5 -31 -6 -4 -8 -14 -5 -22
4 -10 -1 -17 -15 -20 -11 -3 -17 -9 -12 -12 20 -13 41 -69 30 -80 -8 -8 -6
-11 5 -11 22 0 34 20 18 30 -8 5 -10 15 -6 26 6 16 9 14 23 -14 9 -19 23 -32
32 -31 30 2 61 -13 61 -32 0 -26 -17 -33 -25 -9 -3 11 -10 20 -15 20 -5 0 -17
3 -27 7 -17 6 -17 6 0 -14 9 -11 17 -23 17 -26 0 -14 -23 -7 -36 11 -10 14
-15 15 -25 5 -10 -11 -10 -13 0 -13 7 0 9 -4 6 -10 -9 -15 -25 -12 -25 4 0 7
-14 17 -32 22 -39 11 -54 40 -15 30 21 -5 24 -3 20 13 -3 12 -11 17 -19 14
-20 -7 -29 24 -15 54 10 21 9 27 -5 38 -15 11 -14 13 14 23 42 14 43 37 2 29
-16 -4 -30 -3 -30 2 0 30 53 28 74 -3z m104 -5 c27 -23 27 -27 0 -35 -22 -7
-21 -8 9 -19 33 -12 44 -28 24 -35 -6 -2 -11 1 -11 7 0 15 -27 14 -32 -1 -8
-22 -30 4 -24 27 3 13 2 27 -4 30 -7 4 -7 13 0 26 13 23 12 23 38 0z m-643 -1
c3 -5 -1 -10 -9 -10 -9 0 -16 5 -16 10 0 6 4 10 9 10 6 0 13 -4 16 -10z m442
-16 c-9 -9 -28 6 -21 18 4 6 10 6 17 -1 6 -6 8 -13 4 -17z m-467 -29 c0 -19
-24 -30 -41 -19 -9 5 -7 11 6 21 24 17 35 17 35 -2z m160 -20 c0 -8 -4 -15 -9
-15 -13 0 -22 16 -14 24 11 11 23 6 23 -9z m610 -5 c0 -5 -9 -10 -20 -10 -11
0 -20 5 -20 10 0 6 9 10 20 10 11 0 20 -4 20 -10z m-530 -18 c0 -10 6 -24 13
-31 10 -11 6 -12 -21 -6 -20 4 -38 2 -46 -4 -10 -8 -17 -7 -26 4 -7 8 -21 15
-31 15 -11 0 -19 5 -19 10 0 14 38 12 42 -2 3 -7 11 -4 24 9 24 27 64 30 64 5z
m63 -6 c-12 -16 -20 -20 -25 -12 -12 17 -9 24 10 29 32 9 33 7 15 -17z m-313
-6 c0 -12 -45 -24 -59 -15 -22 13 -10 25 24 25 19 0 35 -4 35 -10z m53 -30
c-4 -14 0 -20 12 -20 15 0 15 -2 4 -16 -10 -13 -10 -19 0 -36 7 -11 11 -21 9
-23 -2 -2 -25 -5 -52 -6 -32 -2 -51 1 -54 9 -2 7 6 12 21 12 34 0 52 23 32 40
-19 16 -19 30 0 30 8 0 15 7 15 15 0 8 4 15 9 15 5 0 7 -9 4 -20z m-116 -21
l3 -24 -10 23 c-6 14 -14 20 -21 16 -8 -4 -9 -3 -5 5 12 19 31 7 33 -20z m783
7 c0 -3 -4 -8 -10 -11 -5 -3 -10 -1 -10 4 0 6 5 11 10 11 6 0 10 -2 10 -4z
m-555 -36 c4 -6 -8 -10 -29 -10 -20 0 -36 5 -36 10 0 6 13 10 29 10 17 0 33
-4 36 -10z m105 -10 c0 -11 -4 -20 -9 -20 -5 0 -11 9 -14 20 -3 13 0 20 9 20
8 0 14 -9 14 -20z m-320 -47 c0 -12 5 -25 10 -28 13 -8 13 -35 -1 -35 -6 0
-13 9 -16 20 -3 11 -10 17 -15 14 -9 -6 -9 51 0 70 7 12 22 -16 22 -41z m800
32 c0 -8 -4 -15 -10 -15 -5 0 -10 7 -10 15 0 8 5 15 10 15 6 0 10 -7 10 -15z
m-461 -51 c2 -2 -14 -4 -37 -4 -23 0 -42 5 -42 10 0 10 67 4 79 -6z m-207 -6
c-9 -9 -15 -9 -24 0 -9 9 -7 12 12 12 19 0 21 -3 12 -12z m234 -25 c-10 -10
-19 5 -10 18 6 11 8 11 12 0 2 -7 1 -15 -2 -18z m-386 -3 c0 -5 -6 -10 -14
-10 -8 0 -18 5 -21 10 -3 6 3 10 14 10 12 0 21 -4 21 -10z m345 -1 c-4 -6 -10
-8 -13 -5 -3 3 -11 1 -17 -4 -14 -12 -77 -2 -69 11 3 5 28 9 55 9 33 0 48 -4
44 -11z m-125 -19 c0 -6 -10 -8 -24 -4 -18 4 -25 1 -29 -16 -3 -12 -11 -20
-18 -18 -19 6 -23 28 -5 28 9 0 16 5 16 10 0 6 14 10 30 10 17 0 30 -5 30 -10z
m0 -30 c-20 -13 -33 -13 -25 0 3 6 14 10 23 10 15 0 15 -2 2 -10z m-195 -49
c3 -5 -4 -13 -16 -16 -23 -8 -34 -1 -24 14 8 13 32 14 40 2z m275 -11 c13 -9
13 -11 0 -20 -8 -5 -19 -10 -25 -10 -5 0 -17 5 -25 10 -13 9 -13 11 0 20 8 5
20 10 25 10 6 0 17 -5 25 -10z m-310 -40 c0 -5 -7 -10 -16 -10 -8 0 -12 5 -9
10 3 6 10 10 16 10 5 0 9 -4 9 -10z m240 0 c0 -5 -7 -7 -15 -4 -8 4 -15 8 -15
10 0 2 7 4 15 4 8 0 15 -4 15 -10z m64 -8 c3 -4 -8 -13 -25 -19 -30 -12 -37
-5 -17 15 14 14 35 16 42 4z m-99 -22 c3 -5 -1 -10 -10 -10 -9 0 -13 5 -10 10
3 6 8 10 10 10 2 0 7 -4 10 -10z m35 -115 c0 -30 -11 -32 -27 -6 -10 15 -10
21 0 24 23 10 27 7 27 -18z m-160 -26 c0 -5 -4 -9 -10 -9 -5 0 -10 7 -10 16 0
8 5 12 10 9 6 -3 10 -10 10 -16z m115 -9 c18 -20 17 -20 -9 -20 -23 0 -26 -3
-21 -21 5 -16 3 -20 -6 -17 -14 5 -14 29 0 76 3 8 20 -1 36 -18z m-155 -31 c0
-38 -24 -35 -27 4 -1 18 3 27 13 27 9 0 14 -11 14 -31z m170 -19 c0 -5 -4 -10
-10 -10 -5 0 -10 5 -10 10 0 6 5 10 10 10 6 0 10 -4 10 -10z m195 -10 c-3 -5
-12 -7 -20 -3 -21 7 -19 13 6 13 11 0 18 -4 14 -10z m79 -96 c9 -25 7 -41 -4
-24 -5 8 -10 10 -10 4 0 -11 -48 -29 -55 -22 -2 2 -6 15 -10 31 -7 26 -6 27
33 27 27 0 42 -5 46 -16z m-394 -30 c0 -21 5 -24 34 -24 19 0 37 6 39 13 3 6
4 -1 4 -18 -1 -17 3 -30 11 -31 26 -3 26 -5 8 -19 -17 -13 -22 -13 -38 2 -18
16 -19 16 -24 -4 -6 -22 -34 -40 -34 -23 0 6 4 10 10 10 5 0 7 7 3 16 -3 8
-12 13 -19 10 -10 -4 -14 5 -14 33 0 22 -3 47 -6 55 -5 12 -2 15 10 10 9 -3
16 -17 16 -30z m-42 -16 c-3 -38 -6 -43 -28 -44 -23 -1 -25 3 -25 43 -1 41 1
43 28 43 27 0 28 -2 25 -42z m225 -8 c26 0 38 -41 25 -84 -9 -28 -15 -35 -30
-30 -10 3 -18 1 -18 -4 0 -5 -16 -13 -35 -16 -19 -4 -35 -12 -35 -18 0 -7 -20
-9 -55 -6 -31 3 -52 1 -48 -3 4 -4 26 -9 48 -12 32 -3 29 -4 -17 -5 -56 -2
-58 -1 -58 23 0 30 -10 32 -33 5 -20 -23 -37 -26 -37 -6 0 16 54 41 68 32 6
-3 12 1 16 9 3 8 16 15 28 14 13 0 17 -3 11 -6 -28 -11 -13 -33 22 -33 38 0
91 42 61 48 -9 2 -16 8 -16 14 0 5 7 7 16 4 60 -23 81 -15 48 19 -12 12 -14
19 -6 27 8 8 7 15 -6 25 -15 13 -15 14 8 9 14 -3 33 -6 43 -6z m-258 -77 c0
-14 -6 -28 -12 -31 -14 -4 -17 16 -7 42 9 25 20 19 19 -11z m159 -175 c-3 -5
0 -15 6 -23 9 -11 9 -15 1 -15 -6 0 -11 -7 -11 -15 0 -8 -7 -15 -15 -15 -18 0
-19 12 -2 29 10 10 8 12 -8 10 -11 -2 -21 0 -22 4 -8 22 0 32 27 33 16 1 27
-3 24 -8z m-133 -31 c-13 -13 -26 -3 -16 12 3 6 11 8 17 5 6 -4 6 -10 -1 -17z
m-24 -49 c-3 -8 -6 -5 -6 6 -1 11 2 17 5 13 3 -3 4 -12 1 -19z m93 -2 c0 -15
-30 -26 -70 -26 -15 0 -31 -5 -38 -12 -9 -9 -12 -8 -12 5 0 13 9 17 44 17 30
0 46 5 50 15 7 19 26 20 26 1z m-25 -56 c-3 -5 -22 -10 -41 -10 -19 0 -34 5
-34 10 0 6 18 10 41 10 24 0 38 -4 34 -10z m-48 -106 c-3 -3 -12 -4 -19 -1 -8
3 -5 6 6 6 11 1 17 -2 13 -5z m198 -64 c3 -5 1 -10 -4 -10 -6 0 -11 5 -11 10
0 6 2 10 4 10 3 0 8 -4 11 -10z m-50 -80 c4 -7 -3 -8 -20 -4 -21 5 -26 4 -23
-7 3 -8 1 -22 -4 -31 -8 -17 -9 -17 -26 0 -14 13 -16 21 -8 35 12 19 71 24 81
7z m-121 -55 c9 -14 14 -29 12 -34 -3 -5 3 -19 14 -31 21 -25 17 -49 -5 -27
-7 7 -23 36 -36 63 l-23 49 -7 -30 c-4 -16 -7 -24 -8 -17 0 6 -8 12 -16 12
-18 0 -20 26 -2 33 29 12 56 6 71 -18z m80 -136 c-5 -9 -34 -13 -34 -5 0 2 3
12 6 20 5 13 9 14 20 5 8 -6 11 -15 8 -20z m53 -15 c-3 -3 -12 -4 -19 -1 -8 3
-5 6 6 6 11 1 17 -2 13 -5z m-18 -62 c-5 -2 -9 -12 -9 -23 0 -10 -4 -19 -10
-19 -5 0 -10 -6 -10 -14 0 -8 -7 -17 -16 -20 -29 -11 -33 4 -9 30 13 14 21 32
18 40 -3 8 3 21 13 29 17 12 20 11 25 -3 4 -9 2 -18 -2 -20z"/>
<path d="M97 7380 c-23 -27 -22 -27 18 -32 37 -4 48 7 33 35 -12 23 -30 22
-51 -3z"/>
<path d="M1087 7289 c7 -7 15 -10 18 -7 3 3 -2 9 -12 12 -14 6 -15 5 -6 -5z"/>
<path d="M1697 7623 c18 -2 50 -2 70 0 21 2 7 4 -32 4 -38 0 -55 -2 -38 -4z"/>
<path d="M1941 7614 c-1 -26 7 -34 25 -27 18 7 18 23 0 23 -8 0 -17 6 -19 13
-3 6 -6 3 -6 -9z"/>
<path d="M4040 7520 c0 -89 3 -112 15 -116 20 -8 19 -31 -2 -44 -13 -8 -14
-13 -5 -16 6 -3 12 -21 12 -39 0 -19 5 -37 10 -40 6 -3 10 -19 10 -34 0 -35
21 -81 38 -81 8 0 12 -9 10 -22 -2 -17 5 -27 28 -38 17 -8 43 -32 58 -52 15
-21 34 -38 41 -38 8 0 22 -13 32 -30 9 -17 26 -30 36 -30 40 0 117 -34 117
-52 0 -22 37 -61 45 -48 3 5 6 42 6 82 0 40 2 81 5 91 8 26 24 20 24 -10 0
-14 3 -23 7 -20 3 4 12 2 20 -4 9 -9 17 -8 28 1 8 6 19 9 26 5 8 -5 9 1 4 23
-5 25 -2 33 14 42 12 6 21 21 22 33 0 12 6 38 12 57 14 40 -5 210 -42 380 -11
52 -21 98 -21 103 0 4 -124 7 -275 7 l-275 0 0 -110z"/>
<path d="M1885 7610 c-3 -5 1 -10 10 -10 9 0 13 5 10 10 -3 6 -8 10 -10 10 -2
0 -7 -4 -10 -10z"/>
<path d="M1844 7583 c9 -27 1 -31 -58 -34 -48 -3 -77 -19 -33 -19 24 0 80 -43
90 -70 3 -8 6 -1 6 16 1 24 -4 33 -20 37 -12 3 -18 10 -14 17 4 6 14 9 22 6 9
-4 21 -2 28 4 7 6 25 9 39 6 14 -3 26 0 26 5 0 5 -10 9 -22 9 -12 0 -33 10
-46 23 l-24 22 6 -22z"/>
<path d="M1888 7573 c7 -3 16 -2 19 1 4 3 -2 6 -13 5 -11 0 -14 -3 -6 -6z"/>
<path d="M1897 7514 c7 -3 9 -12 6 -20 -6 -16 23 -19 47 -4 11 7 9 11 -13 19
-28 11 -65 15 -40 5z"/>
<path d="M1980 7490 c0 -5 7 -10 15 -10 8 0 15 5 15 10 0 6 -7 10 -15 10 -8 0
-15 -4 -15 -10z"/>
<path d="M1870 7452 c0 -29 23 -38 50 -19 23 16 12 31 -15 21 -10 -4 -21 -1
-26 7 -6 11 -9 8 -9 -9z"/>
<path d="M1795 7440 c3 -5 8 -10 11 -10 2 0 4 5 4 10 0 6 -5 10 -11 10 -5 0
-7 -4 -4 -10z"/>
<path d="M1910 7370 c34 -11 60 -11 35 0 -11 5 -29 8 -40 8 -16 0 -15 -2 5 -8z"/>
<path d="M1855 7339 c-4 -6 -13 -8 -21 -5 -8 3 -14 2 -14 -3 0 -20 45 -20 65
-1 19 20 19 20 -2 20 -12 0 -25 -5 -28 -11z"/>
<path d="M1617 7326 c-6 -15 1 -26 15 -26 4 0 8 9 8 20 0 23 -15 27 -23 6z"/>
<path d="M1970 7310 c0 -5 5 -10 10 -10 6 0 10 5 10 10 0 6 -4 10 -10 10 -5 0
-10 -4 -10 -10z"/>
<path d="M1805 7290 c-3 -5 1 -13 10 -16 22 -9 29 1 11 15 -10 8 -16 9 -21 1z"/>
<path d="M1810 7251 c0 -11 26 -22 34 -14 12 12 5 23 -14 23 -11 0 -20 -4 -20
-9z"/>
<path d="M1585 7230 c3 -5 12 -10 20 -10 8 0 17 5 20 10 4 6 -5 10 -20 10 -15
0 -24 -4 -20 -10z"/>
<path d="M1838 7203 c7 -3 16 -2 19 1 4 3 -2 6 -13 5 -11 0 -14 -3 -6 -6z"/>
<path d="M1668 7193 c12 -2 30 -2 40 0 9 3 -1 5 -23 4 -22 0 -30 -2 -17 -4z"/>
<path d="M1396 7183 c-14 -14 -5 -31 19 -35 14 -3 27 -3 29 1 6 9 -40 41 -48
34z"/>
<path d="M1576 7172 c-10 -9 5 -22 24 -22 29 0 33 17 5 22 -13 3 -27 3 -29 0z"/>
<path d="M1528 7133 c-10 -2 -18 -9 -18 -15 0 -5 7 -7 16 -4 9 3 20 6 25 6 5
0 9 5 9 10 0 10 -3 11 -32 3z"/>
<path d="M1818 7133 c12 -2 32 -2 45 0 12 2 2 4 -23 4 -25 0 -35 -2 -22 -4z"/>
<path d="M1895 7130 c-3 -5 1 -10 10 -10 9 0 13 5 10 10 -3 6 -8 10 -10 10 -2
0 -7 -4 -10 -10z"/>
<path d="M1935 7130 c-3 -5 1 -10 10 -10 9 0 13 5 10 10 -3 6 -8 10 -10 10 -2
0 -7 -4 -10 -10z"/>
<path d="M1583 7109 c1 -22 0 -21 21 -13 22 8 20 21 -3 27 -15 3 -19 0 -18
-14z"/>
<path d="M1445 7110 c4 -6 11 -8 16 -5 14 9 11 15 -7 15 -8 0 -12 -5 -9 -10z"/>
<path d="M1828 7113 c12 -2 30 -2 40 0 9 3 -1 5 -23 4 -22 0 -30 -2 -17 -4z"/>
<path d="M1435 7070 c4 -12 3 -25 -1 -29 -16 -11 -35 -52 -29 -61 10 -16 45
13 45 37 0 12 6 23 13 26 8 3 4 12 -12 27 l-23 23 7 -23z"/>
<path d="M1599 7060 c-32 -26 -3 -27 31 0 19 15 21 20 9 20 -9 0 -27 -9 -40
-20z"/>
<path d="M1665 7020 c-3 -5 1 -10 10 -10 9 0 13 5 10 10 -3 6 -8 10 -10 10 -2
0 -7 -4 -10 -10z"/>
<path d="M1720 7020 c-8 -5 -11 -12 -8 -15 4 -4 17 0 30 9 24 17 5 23 -22 6z"/>
<path d="M990 6991 c0 -14 6 -17 25 -13 28 5 33 17 9 26 -26 10 -34 7 -34 -13z"/>
<path d="M1480 6995 c0 -8 4 -15 9 -15 5 0 11 7 15 15 3 9 0 15 -9 15 -8 0
-15 -7 -15 -15z"/>
<path d="M1064 6992 c-17 -11 -24 -61 -8 -55 8 3 11 -2 7 -15 -4 -18 1 -20 52
-24 51 -3 87 10 57 20 -7 2 -12 10 -12 17 0 15 -34 38 -43 29 -3 -3 -10 4 -17
15 -11 22 -19 25 -36 13z"/>
<path d="M1530 6980 c0 -5 5 -10 10 -10 6 0 10 5 10 10 0 6 -4 10 -10 10 -5 0
-10 -4 -10 -10z"/>
<path d="M1648 6983 c7 -3 16 -2 19 1 4 3 -2 6 -13 5 -11 0 -14 -3 -6 -6z"/>
<path d="M1615 6950 c-8 -13 25 -13 45 0 12 8 9 10 -12 10 -15 0 -30 -4 -33
-10z"/>
<path d="M1190 6940 c0 -5 5 -10 10 -10 6 0 10 5 10 10 0 6 -4 10 -10 10 -5 0
-10 -4 -10 -10z"/>
<path d="M1503 6925 c2 -5 12 -10 22 -10 10 0 20 5 22 10 2 6 -8 10 -22 10
-14 0 -23 -4 -22 -10z"/>
<path d="M1620 6910 c-13 -8 -12 -10 3 -10 9 0 17 5 17 10 0 12 -1 12 -20 0z"/>
<path d="M1288 6903 c6 -2 18 -2 25 0 6 3 1 5 -13 5 -14 0 -19 -2 -12 -5z"/>
<path d="M1201 6875 c-1 -13 19 -35 31 -35 4 0 8 5 8 10 0 6 -6 10 -14 10 -8
0 -17 6 -19 13 -3 6 -6 7 -6 2z"/>
<path d="M1358 6873 c37 -5 34 -23 -4 -23 -13 0 -24 -4 -24 -9 0 -6 12 -6 30
-1 16 5 37 7 47 6 10 -2 12 -1 6 1 -7 3 -13 11 -13 19 0 10 -11 14 -37 12 -38
-1 -38 -1 -5 -5z"/>
<path d="M1160 6842 c0 -5 -30 -13 -67 -19 -61 -8 -66 -10 -43 -20 15 -6 29
-7 35 -2 5 5 24 9 42 9 18 0 33 4 33 8 0 5 10 14 23 20 l22 11 -22 0 c-13 1
-23 -3 -23 -7z"/>
<path d="M1270 6840 c0 -5 5 -10 10 -10 6 0 10 5 10 10 0 6 -4 10 -10 10 -5 0
-10 -4 -10 -10z"/>
<path d="M1190 6810 c0 -5 14 -10 30 -10 17 0 30 5 30 10 0 6 -13 10 -30 10
-16 0 -30 -4 -30 -10z"/>
<path d="M1503 6813 c9 -2 25 -2 35 0 9 3 1 5 -18 5 -19 0 -27 -2 -17 -5z"/>
<path d="M1160 6779 c-9 -15 -7 -19 7 -18 10 0 26 3 35 7 15 6 14 9 -8 19 -21
10 -26 8 -34 -8z"/>
<path d="M1340 6754 c0 -14 4 -23 10 -19 6 3 10 15 10 26 0 10 -4 19 -10 19
-5 0 -10 -12 -10 -26z"/>
<path d="M1390 6756 c0 -14 5 -28 10 -31 6 -3 10 5 10 19 0 14 -4 28 -10 31
-6 3 -10 -5 -10 -19z"/>
<path d="M1090 6761 c0 -5 9 -7 20 -4 11 3 20 7 20 9 0 2 -9 4 -20 4 -11 0
-20 -4 -20 -9z"/>
<path d="M520 6750 c0 -5 11 -10 25 -10 14 0 25 5 25 10 0 6 -11 10 -25 10
-14 0 -25 -4 -25 -10z"/>
<path d="M1430 6705 c0 -14 4 -25 8 -25 4 0 9 11 10 25 1 14 -3 25 -8 25 -6 0
-10 -11 -10 -25z"/>
<path d="M1290 6701 c0 -10 -10 -25 -22 -34 -13 -8 -19 -19 -15 -23 5 -5 14
-1 21 9 7 9 19 17 26 17 7 0 10 6 7 14 -3 7 0 19 6 25 8 8 7 11 -6 11 -10 0
-17 -8 -17 -19z"/>
<path d="M530 6700 c0 -5 5 -10 10 -10 6 0 10 5 10 10 0 6 -4 10 -10 10 -5 0
-10 -4 -10 -10z"/>
<path d="M570 6684 c0 -22 2 -25 15 -14 12 10 13 16 4 26 -16 20 -19 18 -19
-12z"/>
<path d="M1100 6690 c-8 -6 -25 -10 -37 -10 -13 0 -23 -4 -23 -10 0 -15 42
-11 64 5 22 17 18 29 -4 15z"/>
<path d="M456 6651 c-11 -17 27 -35 85 -39 40 -3 59 -1 59 7 0 17 -30 25 -43
12 -17 -17 -29 -13 -22 9 4 11 2 20 -4 20 -6 0 -11 -8 -11 -17 -1 -17 -1 -17
-11 0 -11 18 -44 23 -53 8z"/>
<path d="M1015 6640 c-3 -6 1 -13 10 -16 19 -8 30 0 20 15 -8 14 -22 14 -30 1z"/>
<path d="M1070 6641 c0 -12 26 -21 58 -21 24 1 25 2 9 11 -10 6 -25 8 -33 5
-8 -3 -14 -1 -14 4 0 6 -4 10 -10 10 -5 0 -10 -4 -10 -9z"/>
<path d="M906 6615 c-14 -21 -14 -25 -2 -25 13 0 36 28 36 44 0 15 -19 4 -34
-19z"/>
<path d="M1850 6610 c0 -5 4 -10 9 -10 6 0 13 5 16 10 3 6 -1 10 -9 10 -9 0
-16 -4 -16 -10z"/>
<path d="M998 6603 c-10 -2 -18 -11 -18 -19 0 -10 13 -14 50 -14 43 0 50 3 50
20 0 16 -6 20 -32 19 -18 -1 -41 -3 -50 -6z"/>
<path d="M1240 6600 c0 -5 5 -10 10 -10 6 0 10 5 10 10 0 6 -4 10 -10 10 -5 0
-10 -4 -10 -10z"/>
<path d="M703 6589 c-9 -9 -8 -15 3 -26 12 -12 17 -12 35 0 l21 15 -20 11
c-25 14 -25 14 -39 0z"/>
<path d="M785 6593 c-17 -5 -15 -7 10 -18 27 -12 28 -13 8 -14 -25 -1 -26 -2
-17 -25 7 -19 41 -21 46 -4 3 7 7 6 11 -5 7 -17 8 -17 -99 -21 -11 -1 -28 -7
-37 -15 -14 -11 -18 -11 -23 3 -4 10 -18 16 -36 16 -23 0 -29 4 -24 15 4 10
-1 15 -15 15 -12 0 -17 4 -14 11 5 7 -11 9 -47 7 -45 -3 -53 -6 -53 -23 0 -16
-7 -20 -37 -20 -21 0 -37 -4 -35 -10 1 -6 33 -9 75 -8 71 3 73 2 70 -19 -2
-13 -11 -24 -22 -26 -14 -3 -17 0 -13 12 5 12 1 16 -15 16 -18 0 -19 -2 -7
-16 12 -15 10 -16 -19 -10 -33 8 -47 -9 -17 -20 11 -5 13 -10 5 -19 -13 -16
17 -30 34 -16 7 6 31 13 55 17 41 7 43 6 36 -15 -6 -21 -4 -22 32 -19 27 2 39
8 41 21 2 10 -3 17 -12 17 -9 0 -16 -7 -16 -15 0 -8 -5 -15 -11 -15 -6 0 -9
10 -7 23 2 16 9 21 26 20 13 -2 25 4 28 12 4 8 10 12 15 9 6 -3 21 1 34 10 30
20 36 20 29 1 -5 -12 4 -15 42 -17 l49 -1 -45 -7 c-44 -7 -44 -7 -9 -8 20 -1
42 -8 48 -16 10 -11 4 -13 -35 -8 -33 3 -49 1 -55 -9 -7 -12 -12 -12 -29 -1
-23 14 -40 8 -40 -14 0 -17 65 -20 75 -3 10 14 88 7 101 -10 13 -17 44 -8 44
13 0 9 -7 12 -20 9 -14 -4 -20 0 -20 11 0 9 8 16 19 16 11 0 21 9 24 21 3 12
10 18 16 14 6 -3 11 1 11 9 0 8 8 20 18 25 15 9 13 10 -10 11 -32 0 -38 8 -28
34 4 14 9 16 14 8 4 -7 19 -12 33 -12 25 0 26 0 8 20 -21 24 -58 26 -75 5 -7
-8 -21 -15 -32 -15 -15 0 -18 5 -13 19 4 14 0 23 -14 30 -21 12 -24 12 -56 4z
m-227 -69 c1 -1 -6 -4 -18 -7 -15 -4 -20 0 -20 15 0 18 2 19 18 7 9 -7 18 -14
20 -15z m327 -26 c-1 -12 -7 -24 -13 -26 -9 -3 -10 23 -3 56 1 2 5 1 9 -2 5
-3 8 -15 7 -28z m-205 -27 c0 -12 -30 -22 -43 -14 -7 4 -3 9 9 14 26 10 34 10
34 0z m-70 -21 c0 -11 -7 -20 -15 -20 -18 0 -19 12 -3 28 16 16 18 15 18 -8z"/>
<path d="M1565 6591 c-3 -5 -1 -12 5 -16 5 -3 10 1 10 9 0 18 -6 21 -15 7z"/>
<path d="M1091 6556 c11 -9 69 -14 69 -6 0 6 -16 10 -37 10 -20 0 -34 -2 -32
-4z"/>
<path d="M1038 6543 c7 -3 16 -2 19 1 4 3 -2 6 -13 5 -11 0 -14 -3 -6 -6z"/>
<path d="M1000 6519 c0 -5 5 -7 10 -4 6 3 10 8 10 11 0 2 -4 4 -10 4 -5 0 -10
-5 -10 -11z"/>
<path d="M1005 6486 c-18 -13 -18 -14 -1 -31 16 -17 17 -17 23 4 4 17 13 21
44 21 22 0 39 5 39 10 0 15 -83 12 -105 -4z"/>
<path d="M1162 6448 c3 -26 21 -22 23 5 1 9 -5 17 -12 17 -9 0 -13 -8 -11 -22z"/>
<path d="M1208 6463 c6 -2 18 -2 25 0 6 3 1 5 -13 5 -14 0 -19 -2 -12 -5z"/>
<path d="M1120 6456 c0 -2 7 -9 15 -16 9 -7 15 -8 15 -2 0 5 -7 12 -15 16 -8
3 -15 4 -15 2z"/>
<path d="M943 6426 l-22 -23 25 -12 c14 -6 26 -11 27 -11 1 0 3 16 4 35 2 41
-4 43 -34 11z"/>
<path d="M1095 6440 c3 -5 8 -10 11 -10 2 0 4 5 4 10 0 6 -5 10 -11 10 -5 0
-7 -4 -4 -10z"/>
<path d="M1325 6430 c3 -5 11 -10 16 -10 6 0 7 5 4 10 -3 6 -11 10 -16 10 -6
0 -7 -4 -4 -10z"/>
<path d="M1378 6433 c7 -3 16 -2 19 1 4 3 -2 6 -13 5 -11 0 -14 -3 -6 -6z"/>
<path d="M1025 6400 c-3 -5 1 -10 9 -10 9 0 16 5 16 10 0 6 -4 10 -9 10 -6 0
-13 -4 -16 -10z"/>
<path d="M1070 6400 c0 -5 5 -10 11 -10 5 0 7 5 4 10 -3 6 -8 10 -11 10 -2 0
-4 -4 -4 -10z"/>
<path d="M536 6385 c-4 -11 2 -15 24 -15 32 0 40 14 14 24 -24 9 -31 7 -38 -9z"/>
<path d="M1168 6393 c7 -3 16 -2 19 1 4 3 -2 6 -13 5 -11 0 -14 -3 -6 -6z"/>
<path d="M1065 6370 c-19 -8 -19 -9 3 -9 12 -1 22 4 22 9 0 6 -1 10 -2 9 -2 0
-12 -4 -23 -9z"/>
<path d="M1119 6378 c0 -2 -2 -19 -2 -38 -2 -29 -6 -36 -27 -38 -14 -2 -29
-10 -33 -18 -4 -8 -20 -15 -35 -15 -27 -1 -27 -1 3 -8 24 -5 32 -3 37 12 4 10
12 15 18 12 12 -7 80 15 80 27 0 4 -4 8 -10 8 -5 0 -10 14 -10 30 0 17 -4 30
-10 30 -5 0 -10 -1 -11 -2z"/>
<path d="M1162 6371 c2 -7 7 -12 11 -12 12 1 9 15 -3 20 -7 2 -11 -2 -8 -8z"/>
<path d="M620 6353 l-25 -15 25 6 c14 3 36 6 50 7 23 0 23 1 5 9 -25 11 -25
11 -55 -7z"/>
<path d="M468 6353 c6 -2 18 -2 25 0 6 3 1 5 -13 5 -14 0 -19 -2 -12 -5z"/>
<path d="M535 6340 c3 -5 8 -10 11 -10 2 0 4 5 4 10 0 6 -5 10 -11 10 -5 0 -7
-4 -4 -10z"/>
<path d="M5750 6340 c-57 -13 -154 -53 -163 -67 -4 -7 -14 -13 -21 -13 -24 0
-128 -83 -230 -184 -64 -63 -120 -109 -157 -127 -32 -17 -67 -41 -77 -54 -11
-13 -22 -22 -25 -19 -17 17 -250 -170 -336 -269 -33 -39 -128 -101 -176 -115
-133 -38 -229 -43 -378 -22 -102 14 -144 9 -183 -25 -32 -28 -41 -30 -46 -14
-6 18 -120 -9 -138 -32 -15 -19 -16 -19 -64 6 -27 14 -50 24 -52 22 -5 -5 25
-105 43 -142 11 -23 2 -17 -36 25 -28 30 -51 61 -51 68 0 6 -5 12 -10 12 -6 0
-15 12 -21 28 l-11 27 -10 -27 c-10 -28 -13 -29 -95 -12 -15 3 -26 -2 -33 -16
-12 -23 -30 -26 -48 -8 -16 16 -102 10 -123 -8 -21 -19 -39 -18 -54 3 -7 10
-29 18 -49 20 -30 1 -39 -2 -45 -20 -5 -12 -6 -29 -3 -37 2 -8 -4 -4 -13 9
-15 19 -16 27 -6 43 8 13 8 24 1 38 -11 21 -35 27 -44 11 -3 -5 -24 -7 -46 -4
-45 6 -45 6 -13 -65 23 -51 11 -57 -21 -10 l-28 43 4 -32 c3 -18 1 -33 -3 -33
-13 0 -89 117 -89 137 -1 17 -1 17 -11 1 -5 -10 -17 -18 -25 -18 -12 0 -13 -8
-8 -35 10 -54 -25 -115 -66 -115 -4 0 -13 14 -20 30 -17 41 -27 45 -52 24 -19
-18 -20 -18 -34 1 -21 29 -17 2 10 -60 29 -65 20 -72 -19 -15 -32 46 -42 49
-55 16 -12 -33 -29 -41 -37 -19 -3 10 -15 27 -26 38 -10 11 -29 36 -41 55 -26
42 -57 50 -71 19 -14 -30 -38 -44 -61 -34 -25 11 -45 7 -66 -12 -14 -13 -21
-13 -32 -4 -9 8 -24 10 -38 5 -13 -4 -32 -8 -43 -9 -12 -1 -21 -10 -23 -23 -4
-29 -26 -28 -46 2 -12 19 -22 23 -43 20 -15 -2 -68 -8 -117 -12 -56 -5 -91
-12 -94 -20 -2 -7 -14 -12 -27 -12 -20 0 -23 -6 -30 -56 -4 -35 -11 -54 -18
-51 -7 2 -27 -9 -45 -24 -36 -32 -55 -35 -92 -14 -34 19 -48 18 -54 -3 -6 -17
-78 -46 -121 -48 -11 -1 -27 -2 -36 -3 -26 -2 -42 -49 -29 -82 12 -28 0 -69
-20 -69 -6 0 -10 -7 -10 -16 0 -10 -6 -14 -15 -11 -18 8 -28 -8 -35 -57 -4
-30 -10 -40 -25 -42 -11 -1 -51 -7 -90 -13 -38 -6 -76 -11 -82 -11 -9 0 -13
-20 -13 -68 0 -73 -6 -86 -57 -121 -18 -12 -33 -28 -33 -34 0 -7 -13 -24 -28
-39 -15 -15 -34 -44 -41 -65 -17 -47 -42 -82 -58 -83 -7 0 -13 -6 -13 -13 0
-17 -42 -67 -55 -67 -22 -1 -83 -67 -89 -97 -5 -19 -23 -44 -48 -65 -22 -18
-50 -42 -62 -53 -23 -23 -80 -45 -113 -45 -13 0 -23 -5 -23 -11 0 -5 -3 -8 -8
-6 -14 9 -52 -12 -52 -29 0 -13 -7 -15 -32 -11 -60 10 -93 20 -107 31 -8 6
-26 12 -40 12 -14 1 -46 7 -70 13 -24 7 -51 9 -60 6 -9 -2 -46 -5 -83 -6 l-68
-2 0 -1867 c0 -1866 0 -1868 20 -1863 11 3 30 16 43 29 12 13 30 24 39 24 9 0
20 4 23 10 3 5 26 10 51 10 30 0 44 4 44 13 0 9 -10 12 -31 9 -41 -6 -35 15
12 41 18 11 47 31 63 44 25 21 38 24 73 20 31 -3 46 0 56 12 25 28 49 82 43
97 -3 8 -1 14 4 14 13 0 50 37 50 50 0 6 9 10 20 10 19 0 28 24 13 33 -5 2 -3
2 4 1 6 -2 25 2 42 9 25 9 31 17 31 40 0 26 -3 28 -33 26 -36 -3 -80 21 -75
42 2 7 -3 13 -11 14 -8 0 -18 8 -22 18 -5 9 -14 25 -19 35 -6 9 -15 28 -21 41
-14 35 -77 93 -90 85 -17 -10 -61 17 -54 35 3 8 0 18 -7 23 -10 8 -10 11 0 15
6 2 12 15 12 27 0 12 5 27 11 33 9 9 5 18 -15 38 -31 31 -32 35 -6 28 20 -5
29 12 10 19 -6 2 -4 13 4 29 7 15 12 37 10 50 -3 16 5 34 26 56 33 37 40 40
40 18 0 -9 20 -20 51 -29 53 -16 99 -57 99 -87 0 -9 9 -19 20 -22 14 -4 18
-10 14 -22 -7 -16 10 -59 34 -83 6 -7 12 -22 12 -32 0 -10 5 -22 11 -26 21
-12 50 -93 48 -131 -3 -65 65 -183 105 -183 10 0 27 -5 39 -12 52 -27 287 21
287 59 0 8 14 13 39 13 30 0 40 4 44 20 5 20 37 29 37 11 0 -5 9 -12 20 -16
18 -6 16 -9 -15 -36 -20 -18 -32 -36 -28 -45 3 -8 -1 -14 -8 -15 -8 -1 -25 -2
-39 -2 -15 -1 -25 -8 -25 -17 0 -11 8 -14 28 -12 28 4 29 2 22 -30 -4 -18 -11
-38 -16 -44 -5 -7 6 -17 31 -28 27 -12 40 -24 40 -37 0 -11 10 -23 24 -28 29
-12 41 -40 21 -47 -9 -4 -15 -19 -15 -40 0 -32 2 -34 20 -24 17 9 20 8 20 -10
0 -15 5 -20 18 -18 11 3 16 12 15 26 -3 27 16 29 45 3 26 -22 28 -31 6 -31
-11 0 -14 -6 -9 -20 6 -20 -9 -28 -20 -10 -11 18 -35 11 -35 -11 0 -19 -4 -20
-41 -14 -32 6 -43 3 -53 -10 -11 -15 -14 -13 -31 19 -14 26 -26 36 -43 36 -18
0 -23 -4 -18 -16 3 -9 6 -18 6 -20 0 -2 7 -4 16 -4 25 0 44 -31 33 -52 -11
-20 -35 -24 -41 -7 -2 6 -32 13 -66 16 -52 5 -62 9 -62 24 0 11 -4 19 -8 19
-11 0 -52 -39 -52 -49 0 -5 -24 -12 -54 -15 -53 -7 -55 -9 -79 -56 -19 -38
-22 -52 -12 -60 6 -5 14 -8 16 -6 2 2 16 6 32 10 38 9 34 -7 -6 -22 -17 -6
-40 -24 -50 -39 -10 -16 -16 -21 -14 -13 2 8 -4 22 -13 30 -9 8 -20 27 -23 42
-6 21 -3 30 13 38 26 14 25 27 -2 36 -14 4 -25 1 -33 -10 -7 -9 -17 -16 -24
-16 -6 0 -11 -5 -11 -10 0 -6 -6 -9 -12 -8 -8 2 -12 -5 -10 -17 19 -116 19
-130 -5 -133 -13 -2 -23 -8 -23 -13 0 -5 -7 -9 -15 -9 -24 0 -17 26 10 38 30
14 32 28 5 42 -13 7 -20 21 -20 40 0 38 -19 39 -54 4 -28 -28 -34 -72 -14 -92
9 -9 9 -12 0 -12 -7 0 -12 -11 -12 -25 0 -14 -9 -34 -20 -45 l-20 -20 103 0
c102 0 103 0 129 31 23 25 30 28 47 20 44 -24 56 -3 19 36 -27 29 -19 40 10
13 22 -21 52 -27 52 -11 0 5 -10 11 -22 13 -12 2 -24 9 -26 17 -4 11 5 13 44
8 27 -3 56 -1 64 3 26 14 67 0 79 -26 14 -32 14 -34 -4 -34 -21 0 -18 -10 10
-42 28 -33 45 -36 38 -8 -3 11 -12 20 -19 20 -8 0 -14 5 -14 10 0 16 37 12 44
-5 3 -8 10 -15 15 -15 14 0 2 32 -17 48 -14 11 -14 12 1 12 9 0 17 7 17 15 0
8 3 15 8 15 14 -1 39 -25 40 -40 1 -8 5 -30 8 -48 6 -32 7 -32 65 -32 35 0 59
4 59 11 0 5 -4 7 -10 4 -5 -3 -10 -1 -10 4 0 17 57 13 64 -4 5 -13 367 -15
3176 -15 l3170 0 0 830 c0 604 -3 830 -11 830 -7 0 -9 -10 -7 -25 7 -32 -29
-56 -89 -60 -24 -2 -47 -5 -50 -8 -16 -17 -22 -108 -12 -184 l12 -83 -34 -67
c-18 -38 -41 -79 -51 -93 -14 -19 -16 -33 -10 -55 13 -47 7 -166 -8 -175 -7
-4 -10 -12 -6 -18 13 -21 -13 -22 -48 -1 -41 24 -60 17 -52 -17 9 -33 -12 -30
-26 4 -6 15 -27 59 -46 99 -32 65 -38 72 -59 67 -22 -6 -23 -4 -17 22 4 16 11
37 15 46 11 21 12 37 1 21 -6 -9 -11 -7 -20 7 -10 16 -10 20 2 20 20 0 30 18
18 33 -5 7 -12 35 -15 62 -3 28 -13 64 -21 80 -9 17 -16 36 -16 43 0 6 -7 12
-15 12 -11 0 -14 -11 -10 -50 2 -28 7 -55 11 -62 4 -7 9 -25 11 -42 2 -16 8
-35 13 -41 7 -9 6 -14 -3 -18 -16 -6 -50 34 -61 71 -4 12 -30 45 -57 73 -27
28 -49 54 -49 58 0 14 -46 51 -63 51 -24 0 -22 -51 3 -78 12 -12 22 -38 24
-57 3 -39 2 -39 -25 -25 -15 8 -19 8 -17 -2 4 -19 21 -28 40 -22 10 3 21 -3
27 -15 17 -30 13 -39 -14 -33 -14 2 -22 8 -19 13 3 5 1 9 -4 9 -6 0 -12 -7
-16 -15 -3 -9 0 -15 8 -15 8 0 19 -20 25 -45 6 -25 20 -54 31 -65 11 -11 33
-44 49 -73 16 -28 37 -66 47 -84 10 -17 16 -34 12 -38 -7 -8 -58 39 -58 54 0
6 -4 11 -10 11 -5 0 -12 11 -16 25 -3 14 -13 25 -20 25 -8 0 -18 8 -21 18 -4
9 -12 21 -20 25 -7 4 -13 17 -13 27 0 21 -41 70 -58 70 -6 0 -19 10 -29 23
-10 13 -24 22 -31 19 -7 -2 -11 1 -10 6 2 5 -25 37 -58 70 -65 63 -104 85
-104 59 0 -9 -3 -17 -7 -20 -5 -2 -2 -2 6 0 9 2 12 -3 8 -17 -4 -15 3 -26 29
-44 19 -12 31 -26 27 -29 -10 -11 -20 -8 -45 13 -57 49 -72 60 -80 60 -15 0
12 -39 40 -57 47 -30 53 -40 38 -53 -11 -9 -17 -7 -24 7 -9 15 -22 18 -78 15
-37 -1 -70 -5 -73 -7 -2 -3 3 -13 12 -23 10 -10 17 -32 17 -48 0 -16 6 -38 13
-49 26 -38 27 -52 4 -50 -13 1 -27 14 -36 33 -9 17 -24 32 -33 32 -10 0 -18 5
-18 10 0 6 -7 10 -16 10 -11 0 -14 -5 -10 -16 3 -9 6 -19 6 -24 0 -5 8 -17 18
-26 16 -17 16 -18 -2 -11 -17 7 -18 4 -12 -35 l6 -43 -23 30 c-12 16 -31 39
-42 49 -13 13 -18 31 -16 52 1 18 -2 35 -8 39 -13 8 -14 75 -1 95 13 21 22 7
24 -39 1 -23 7 -46 12 -51 7 -7 9 6 7 42 -2 29 -7 54 -13 56 -5 2 -10 15 -10
28 0 19 -5 24 -27 24 -14 0 -33 7 -42 15 -9 8 -26 23 -37 33 -12 11 -26 28
-32 38 -9 16 -12 16 -27 4 -12 -10 -15 -23 -10 -52 4 -25 3 -38 -4 -38 -7 0
-10 -33 -9 -97 1 -66 -3 -98 -10 -101 -7 -2 -12 8 -13 25 -1 15 -2 33 -4 38
-1 6 -3 20 -3 33 -2 24 -30 30 -50 10 -8 -8 -15 -8 -27 2 -13 11 -15 9 -15
-13 0 -39 -15 -41 -45 -5 -21 25 -28 29 -36 17 -5 -8 -9 -22 -9 -32 0 -9 -4
-25 -9 -35 -5 -9 -12 -26 -16 -37 -5 -16 -8 -17 -15 -5 -15 23 -12 50 5 50 9
0 12 6 9 15 -8 21 -40 19 -48 -2 -3 -10 -14 -45 -24 -78 -15 -47 -20 -55 -24
-37 -9 33 -26 26 -39 -16 -6 -21 -20 -44 -30 -50 -17 -11 -19 -9 -19 23 0 19
-4 35 -10 35 -5 0 -10 -4 -10 -10 0 -5 -13 -10 -29 -10 -17 0 -33 -5 -36 -10
-8 -13 -25 -3 -25 15 0 9 7 12 18 9 15 -5 15 -4 1 8 -17 14 -19 88 -2 111 5 6
14 28 21 48 12 35 11 38 -19 70 l-31 33 -25 -33 -26 -33 -17 23 -18 22 -6 -21
c-6 -17 -15 -22 -42 -22 -19 0 -34 -4 -34 -10 0 -5 -5 -10 -11 -10 -8 0 -10
19 -5 66 7 71 19 104 38 104 6 0 16 8 23 17 16 21 91 19 116 -3 25 -22 39 -17
39 17 0 26 -3 30 -19 26 -12 -3 -22 1 -25 10 -9 23 -7 33 5 30 18 -3 22 20 6
34 -8 8 -12 21 -9 31 6 25 -38 44 -68 28 -37 -20 -42 -2 -28 105 11 90 15 103
44 135 28 31 38 35 80 35 40 0 50 4 60 23 12 24 8 62 -6 62 -4 0 -11 -11 -14
-24 -7 -27 -33 -40 -60 -30 -24 9 -20 43 7 53 42 17 70 57 75 111 3 32 9 50
17 50 8 0 15 6 18 13 4 9 7 9 18 -1 18 -17 40 -15 33 3 -4 8 16 37 50 72 31
32 56 62 56 67 0 5 -7 17 -15 26 -14 16 -12 19 23 43 29 19 42 23 51 14 18
-18 50 -18 60 1 13 26 -5 65 -27 58 -13 -5 -22 1 -30 18 -7 17 -8 27 -1 32 7
4 7 10 0 18 -20 24 1 25 38 1 20 -12 53 -26 73 -29 31 -6 39 -3 48 13 10 19
11 20 28 3 15 -15 15 -19 2 -33 -8 -8 -21 -14 -27 -11 -29 10 -10 -26 27 -51
36 -25 53 -22 47 9 -3 16 0 28 9 31 9 3 13 19 12 45 -1 35 -7 44 -47 74 -64
48 -92 72 -92 81 -1 4 -22 23 -47 41 -25 17 -43 32 -40 32 5 0 170 -78 239
-114 16 -8 33 -10 47 -5 20 8 22 13 16 51 -4 25 -15 50 -27 59 -29 23 -9 30
38 12 70 -26 82 -27 94 -6 21 40 -48 138 -159 227 -35 28 -34 28 26 -4 33 -18
79 -50 103 -71 23 -22 46 -39 49 -39 20 1 30 21 36 76 6 56 5 61 -16 72 -19
10 -14 11 35 6 47 -4 58 -3 63 11 4 10 -2 25 -15 38 -18 18 -32 22 -84 20 -53
-1 -59 0 -44 11 19 15 23 46 6 46 -8 0 -10 15 -5 46 5 37 3 49 -11 59 -16 12
-16 14 0 38 33 51 18 74 -38 58 -19 -5 -37 -6 -40 -1 -3 4 4 10 15 13 15 4 18
10 13 24 -12 32 -35 43 -79 37 -24 -3 -44 -2 -48 4 -15 25 10 75 70 138 35 37
64 72 64 80 0 7 9 15 20 19 10 3 38 28 61 56 24 27 47 49 51 49 5 0 22 10 38
22 22 16 30 30 30 53 0 17 5 36 11 42 16 16 3 43 -20 43 -11 0 -23 5 -27 11
-3 6 -22 18 -41 26 -25 10 -33 19 -29 30 8 20 -23 44 -47 37 -10 -3 -24 0 -32
6 -8 7 -21 10 -30 7 -8 -4 -20 2 -27 11 -15 19 -45 40 -70 48 -10 4 -20 15
-24 26 -5 18 -12 19 -52 13 -26 -4 -48 -11 -50 -16 -2 -5 -12 -9 -23 -9 -22 0
-62 37 -54 50 3 5 -5 11 -17 13 -18 3 -16 5 7 6 26 1 33 7 44 36 7 19 9 41 4
47 -4 7 -8 18 -9 23 -3 26 -17 54 -24 50 -5 -3 -11 -1 -15 5 -3 5 -24 10 -46
10 -24 0 -38 4 -34 10 10 17 -81 12 -95 -5 -7 -8 -27 -15 -46 -15 -18 0 -36
-4 -39 -10 -3 -5 -17 -10 -31 -10 -13 0 -24 5 -24 10 0 6 5 10 10 10 16 0 11
27 -6 34 -12 5 -15 14 -11 35 6 31 -7 51 -34 51 -9 0 -22 7 -29 15 -11 13 -8
15 22 15 19 0 39 -5 45 -11 18 -18 68 -1 86 30 27 46 22 61 -18 61 -29 0 -35
4 -35 21 0 25 -17 59 -31 59 -11 0 -58 32 -107 73 -25 21 -43 27 -78 27 -31 0
-54 7 -71 20 -14 11 -34 20 -44 20 -14 0 -19 7 -19 28 0 16 -9 35 -21 45 -13
12 -18 24 -14 35 3 9 9 31 12 47 3 17 23 46 44 67 22 20 39 43 39 51 0 8 13
17 30 20 22 5 31 14 36 34 11 43 33 72 69 89 23 11 35 26 44 53 14 50 14 51
-8 51 -28 0 -34 15 -15 35 18 18 15 88 -5 108 -21 21 -162 -28 -190 -66 -9
-13 -16 -15 -21 -8 -12 21 -38 0 -45 -36 -7 -40 -45 -123 -56 -123 -9 0 -29
90 -29 127 0 22 -3 24 -25 19 -19 -5 -28 -1 -41 18 -24 38 -11 66 34 68 20 0
45 0 55 0 16 -2 17 4 11 61 -5 43 -13 67 -27 79 -20 18 -20 18 11 48 18 17 32
35 32 40 0 6 16 10 35 10 21 0 35 5 35 13 1 14 51 51 93 68 19 8 27 18 27 35
0 13 5 24 10 24 6 0 10 7 10 15 0 20 -17 19 -29 -2 -9 -17 -11 -16 -27 5 -13
20 -22 23 -48 18 l-31 -6 42 38 c31 28 42 47 45 72 2 22 9 35 18 36 8 1 20 3
25 4 6 1 15 3 20 5 6 1 29 3 53 3 27 1 42 7 42 15 0 7 37 35 82 63 80 48 81
49 50 52 -20 2 -47 -5 -68 -17 -46 -28 -62 -26 -92 6 -18 20 -21 28 -11 31 8
2 21 6 29 9 8 4 21 5 28 4 8 -1 19 2 25 7 7 5 26 13 42 16 43 10 75 40 75 70
0 40 -39 36 -47 -5 -3 -17 -13 -33 -22 -37 -9 -3 -19 -10 -23 -16 -5 -6 -8 -2
-8 10 0 11 -5 25 -11 31 -8 8 -6 13 7 17 11 3 26 19 35 35 10 17 41 40 78 59
83 41 125 95 72 91 -9 -1 -32 -5 -51 -9z m-160 -198 c0 -13 -12 -22 -22 -16
-10 6 -1 24 13 24 5 0 9 -4 9 -8z m-90 -72 c0 -5 -4 -10 -10 -10 -5 0 -10 5
-10 10 0 6 5 10 10 10 6 0 10 -4 10 -10z m-57 -78 c15 -16 15 -21 2 -38 -14
-18 -15 -18 -40 10 -14 16 -25 33 -25 38 0 15 47 8 63 -10z m-55 -265 c4 -21
-27 -35 -38 -17 -12 19 0 42 19 38 9 -2 17 -11 19 -21z m-379 -319 c18 -49 21
-88 7 -88 -17 0 -36 43 -36 80 0 35 17 40 29 8z m351 -279 c0 -6 -4 -7 -10 -4
-5 3 -10 11 -10 16 0 6 5 7 10 4 6 -3 10 -11 10 -16z m-161 -137 c18 11 23 11
30 -1 13 -21 3 -38 -30 -51 -16 -7 -29 -16 -29 -20 0 -4 -8 -7 -17 -6 -10 0
-17 -5 -15 -11 1 -7 -2 -13 -8 -13 -15 0 -12 21 7 42 13 14 13 18 2 18 -10 1
-9 4 4 11 9 5 17 18 17 27 0 13 2 14 9 4 7 -12 12 -12 30 0z m-1109 -22 c11
-7 4 -10 -25 -9 -31 0 -36 2 -20 9 26 11 28 11 45 0z m-82 -24 c-9 -9 -19 -11
-30 -5 -9 5 -24 6 -34 2 -12 -4 -15 -3 -10 5 4 7 25 12 47 12 34 0 38 -2 27
-14z m-43 -26 c-3 -5 -11 -10 -16 -10 -6 0 -7 5 -4 10 3 6 11 10 16 10 6 0 7
-4 4 -10z m235 -50 c6 -11 8 -20 6 -20 -3 0 -10 9 -16 20 -6 11 -8 20 -6 20 3
0 10 -9 16 -20z m400 -39 c0 -15 -31 -42 -41 -36 -5 4 -9 15 -9 26 0 14 7 19
25 19 14 0 25 -4 25 -9z m-2190 -141 c0 -37 -2 -40 -29 -40 -16 0 -34 7 -41
15 -18 22 12 65 45 65 22 0 25 -4 25 -40z m-190 -65 c0 -8 -4 -15 -9 -15 -13
0 -22 16 -14 24 11 11 23 6 23 -9z m412 -284 c-1 -7 4 -22 13 -34 14 -20 21
-77 10 -77 -3 0 -17 11 -31 23 -25 24 -35 71 -20 96 10 15 32 8 28 -8z m-38
-78 c3 -8 4 -18 1 -23 -3 -4 4 -10 15 -13 13 -3 20 -14 20 -29 0 -12 4 -28 8
-33 13 -20 70 -55 83 -53 7 2 15 -5 17 -14 5 -26 54 -78 72 -78 9 0 20 -4 26
-9 5 -5 33 -11 62 -14 50 -6 52 -5 52 18 0 14 3 25 8 25 9 0 35 -40 38 -59 2
-7 7 -18 13 -24 6 -6 11 -19 11 -29 0 -10 7 -18 15 -18 8 0 23 -18 32 -40 10
-22 21 -40 25 -40 4 0 10 -16 14 -36 5 -25 14 -38 31 -45 17 -6 23 -14 19 -27
-4 -12 1 -26 14 -37 26 -23 29 -95 4 -95 -10 0 -14 -6 -11 -14 4 -9 -2 -17
-15 -21 -16 -6 -19 -13 -14 -36 4 -21 1 -31 -10 -36 -21 -8 -44 -56 -44 -94 0
-24 -3 -30 -16 -25 -19 7 -41 -3 -26 -13 16 -10 -39 -88 -66 -96 -15 -3 -22
-11 -19 -20 3 -7 -1 -19 -9 -26 -10 -9 -12 -14 -4 -19 8 -5 6 -12 -5 -24 -12
-11 -15 -25 -10 -46 6 -29 -8 -44 -18 -17 -2 6 -13 -5 -23 -26 -16 -34 -17
-40 -4 -47 8 -5 26 -17 38 -29 13 -11 29 -22 35 -24 9 -3 9 -8 0 -18 -13 -13
-19 -48 -6 -36 3 4 15 -1 26 -10 10 -10 21 -17 23 -15 11 7 24 0 24 -13 0 -13
3 -13 20 -3 11 7 20 17 20 21 0 5 7 15 15 23 13 14 16 14 21 1 7 -19 -31 -103
-49 -110 -15 -6 -12 -57 3 -57 4 0 6 -17 5 -37 -1 -33 -4 -38 -23 -35 -16 2
-25 -5 -36 -32 -8 -20 -20 -36 -25 -36 -6 0 -10 -6 -9 -12 2 -7 -8 -14 -20
-16 -21 -3 -23 -7 -17 -39 4 -24 3 -33 -4 -28 -6 3 -11 1 -11 -6 0 -10 -3 -10
-12 -1 -13 13 -48 -19 -74 -69 -8 -17 -21 -32 -28 -35 -15 -6 -16 -17 -17
-107 0 -45 -3 -58 -14 -54 -17 7 -30 -153 -16 -201 7 -24 7 -41 -2 -60 -16
-36 -57 -82 -74 -82 -7 0 -13 -7 -13 -15 0 -19 -19 -19 -26 0 -10 24 -39 17
-55 -12 -15 -30 -44 -63 -55 -63 -4 0 -18 9 -30 21 l-22 20 -26 -34 c-14 -19
-26 -37 -26 -40 0 -3 17 -7 38 -9 30 -2 36 -6 34 -22 -5 -28 -34 -64 -57 -70
-11 -3 -53 -6 -93 -6 -66 0 -73 2 -81 23 -5 12 -11 21 -15 20 -14 -6 -26 -2
-26 7 0 6 11 10 25 10 14 0 28 6 31 14 3 7 22 16 43 20 21 3 44 12 51 20 19
23 8 51 -20 52 -14 0 -30 1 -37 2 -14 2 -33 64 -33 109 0 27 -4 32 -27 35 -25
3 -28 8 -31 43 -2 22 -8 45 -13 50 -7 7 -9 5 -7 -4 4 -18 -13 -23 -32 -11 -13
9 -13 11 0 20 45 28 57 38 85 65 25 25 27 30 13 33 -10 2 -18 12 -18 23 0 11
-7 22 -16 26 -8 3 -13 12 -10 19 3 8 0 14 -7 14 -8 0 -9 2 -1 8 6 4 11 16 11
27 -1 57 5 75 42 111 22 21 38 42 35 46 -3 4 2 11 11 14 9 4 14 13 11 20 -4
10 3 14 24 14 19 0 34 7 42 20 7 11 21 20 31 20 9 0 22 10 27 23 5 12 29 44
55 71 46 51 54 66 33 66 -15 0 -32 32 -63 121 -13 37 -31 79 -40 93 -10 15
-19 37 -20 50 -2 13 -6 33 -10 45 -4 15 -1 23 10 27 12 5 13 9 4 20 -6 8 -8
14 -3 14 4 0 3 5 -3 11 -14 14 -6 39 13 39 8 0 14 4 14 9 0 12 -49 51 -64 51
-17 0 -35 47 -23 59 7 7 3 13 -14 20 -13 5 -33 25 -43 45 -11 20 -22 36 -26
36 -4 0 -7 8 -6 18 1 12 -5 16 -23 14 -23 -2 -24 -2 -7 17 13 15 14 20 3 24
-7 3 -18 22 -25 43 -6 22 -19 62 -28 91 -16 54 -16 86 1 81 6 -2 9 -5 8 -8 -1
-3 7 -7 18 -7 24 -2 24 -1 -1 44 -11 21 -20 43 -20 50 0 6 -9 32 -20 58 l-20
46 23 8 c16 6 30 3 49 -11 16 -11 32 -17 38 -13 14 9 117 -60 124 -83 7 -22
39 -35 53 -22 4 5 24 10 43 12 28 2 35 7 35 25 0 12 3 25 7 28 3 3 0 27 -8 52
-17 55 -11 67 27 59 35 -7 37 4 9 69 -26 61 -25 69 5 40 13 -14 31 -25 40 -25
8 0 15 -5 15 -11 0 -5 5 -7 10 -4 15 9 12 45 -3 45 -8 0 -20 30 -32 78 -10 42
-23 80 -27 83 -5 3 -4 29 2 57 5 29 7 59 4 67 -4 11 -2 13 9 9 9 -3 18 -12 21
-21z m3279 -63 c3 -12 -1 -23 -10 -29 -10 -5 -13 -13 -8 -21 6 -10 11 -9 21 4
9 13 17 15 29 9 14 -9 13 -12 -9 -34 -14 -13 -26 -31 -26 -41 0 -9 -6 -19 -12
-21 -7 -3 -3 -6 9 -6 37 -2 36 -20 -3 -36 -46 -19 -44 -19 -44 6 0 14 -5 19
-14 16 -12 -5 -152 -10 -181 -7 -5 0 0 9 13 20 l23 19 -25 7 c-44 11 -31 54
21 67 25 6 48 -15 40 -37 -9 -22 27 -25 52 -5 13 11 30 19 37 19 10 0 13 8 9
27 -9 51 65 92 78 43z m-261 -190 c2 -17 -2 -25 -12 -25 -8 0 -21 -4 -27 -8
-8 -5 -13 -4 -13 2 0 6 5 11 10 11 6 0 10 11 10 23 0 47 25 44 32 -3z m-12
-111 c0 -10 -4 -19 -10 -19 -5 0 -10 12 -10 26 0 14 4 23 10 19 6 -3 10 -15
10 -26z m-3370 -49 c0 -5 -4 -10 -10 -10 -5 0 -10 5 -10 10 0 6 5 10 10 10 6
0 10 -4 10 -10z m1045 -21 c4 -12 2 -26 -4 -32 -6 -6 -11 -21 -11 -34 0 -36
-27 -93 -44 -93 -12 0 -16 11 -16 45 0 25 4 45 9 45 8 0 19 23 35 73 7 23 23
22 31 -4z m1723 -341 c-3 -7 -19 -16 -36 -20 -18 -5 -32 -13 -32 -18 0 -6 -5
-10 -11 -10 -20 0 -3 23 31 42 40 21 53 23 48 6z m-218 -38 c0 -5 -2 -10 -4
-10 -3 0 -8 5 -11 10 -3 6 -1 10 4 10 6 0 11 -4 11 -10z m33 -31 c27 -15 51
-39 60 -61 13 -36 -29 -8 -75 50 -20 25 -16 27 15 11z m144 -156 c29 -32 52
-65 51 -73 -3 -11 -9 -9 -26 10 -47 51 -92 108 -92 114 0 15 17 2 67 -51z
m-1049 -88 c-15 -32 -4 -43 21 -21 11 10 24 15 30 12 6 -4 20 -2 31 4 16 8 24
6 41 -11 11 -11 18 -23 15 -26 -3 -4 -1 -12 5 -19 7 -9 7 -19 -1 -35 -9 -15
-9 -28 -2 -44 7 -15 7 -26 0 -33 -15 -15 1 -34 23 -27 17 6 18 4 8 -21 -5 -16
-9 -40 -8 -54 0 -14 1 -31 0 -38 -1 -15 -82 -92 -97 -92 -6 0 -16 -11 -22 -25
-12 -27 -28 -33 -35 -12 -3 9 -7 9 -20 -2 -12 -10 -17 -10 -17 -2 0 8 -6 7
-16 -3 -22 -23 -156 -23 -148 -1 7 17 -11 21 -21 5 -10 -15 -64 -9 -58 7 3 8
-2 13 -13 13 -14 0 -11 6 14 21 34 22 42 39 17 39 -8 0 -15 -4 -15 -10 0 -5
-4 -10 -9 -10 -9 0 -33 91 -27 98 2 1 15 -3 30 -9 19 -9 35 -9 61 -2 18 6 36
8 39 5 6 -5 -29 -39 -46 -44 -6 -2 -9 -10 -7 -16 3 -9 11 -7 26 8 12 11 28 20
35 20 24 1 61 27 49 34 -15 10 -14 29 2 23 6 -2 21 -1 32 4 16 6 13 8 -15 9
l-35 1 24 19 c25 21 23 23 -25 20 -35 -2 -55 16 -30 26 9 3 16 12 16 19 0 7 6
16 13 18 6 3 3 6 -7 6 -11 1 -16 4 -13 8 4 3 2 12 -4 20 -9 10 -4 21 24 48 20
19 41 35 48 35 9 0 9 3 0 14 -16 19 2 30 34 22 15 -4 29 -1 37 9 20 23 29 18
16 -10z m-778 -85 c0 -5 -6 -10 -14 -10 -8 0 -18 5 -21 10 -3 6 3 10 14 10 12
0 21 -4 21 -10z m-40 -65 c10 -12 9 -15 -8 -15 -11 0 -23 6 -25 13 -3 7 -6 4
-6 -6 -1 -10 -6 -17 -13 -15 -20 7 -20 26 -1 31 32 8 40 7 53 -8z m60 -5 c12
-8 11 -10 -7 -10 -13 0 -23 5 -23 10 0 13 11 13 30 0z m1048 -2 c-3 -7 -21
-14 -41 -16 -21 -2 -35 -7 -32 -12 3 -5 1 -11 -5 -15 -5 -3 -10 2 -10 13 0 13
11 23 33 30 45 14 59 14 55 0z m-1128 -63 c0 -8 -7 -15 -15 -15 -16 0 -20 12
-8 23 11 12 23 8 23 -8z m536 -31 c-9 -9 -20 -14 -23 -10 -4 3 2 13 13 20 25
18 31 12 10 -10z m549 16 c3 -5 -1 -10 -10 -10 -9 0 -13 5 -10 10 3 6 8 10 10
10 2 0 7 -4 10 -10z m1963 -28 c12 -8 21 -16 19 -18 -5 -6 -65 25 -72 37 -7
11 22 1 53 -19z m-2858 -2 c0 -5 -2 -10 -4 -10 -3 0 -8 5 -11 10 -3 6 -1 10 4
10 6 0 11 -4 11 -10z m140 0 c0 -13 -70 -13 -90 0 -11 7 0 10 38 10 28 0 52
-4 52 -10z m340 0 c0 -5 -4 -10 -10 -10 -5 0 -10 5 -10 10 0 6 5 10 10 10 6 0
10 -4 10 -10z m-492 -46 l77 6 -50 -15 c-27 -8 -63 -15 -80 -16 l-30 -1 40
-19 c28 -13 52 -17 80 -14 37 6 39 5 21 -10 -11 -8 -28 -15 -37 -15 -10 0 -21
-4 -24 -10 -10 -15 -35 -12 -35 5 0 9 -9 15 -22 16 -22 0 -22 1 -3 9 19 8 19
9 -2 9 -14 1 -23 -5 -23 -14 0 -9 -6 -12 -15 -9 -8 4 -17 -1 -21 -10 -9 -23
-51 -20 -57 4 -4 15 0 19 16 17 19 -2 21 3 19 35 -4 40 16 53 51 35 10 -4 53
-6 95 -3z m150 -67 c2 -10 -3 -17 -12 -17 -18 0 -29 16 -21 31 9 14 29 6 33
-14z m312 -102 c11 -13 10 -18 -5 -29 -18 -13 -18 -14 3 -25 24 -13 37 -1 37
34 0 16 6 20 30 18 17 -1 40 -8 53 -14 21 -12 21 -13 5 -31 -11 -12 -23 -16
-37 -12 -19 6 -20 5 -6 -11 14 -17 13 -18 -14 -11 -23 6 -27 4 -23 -8 3 -8 -2
-16 -14 -19 -10 -3 -19 -2 -19 3 0 4 -8 11 -17 14 -10 3 -28 12 -41 20 -20 12
-21 14 -6 20 15 6 15 8 0 24 -12 14 -13 21 -4 30 17 17 43 15 58 -3z m-3430
-415 c0 -5 -4 -10 -10 -10 -5 0 -10 5 -10 10 0 6 5 10 10 10 6 0 10 -4 10 -10z
m10 -105 c0 -27 9 -32 28 -13 8 8 12 8 12 1 0 -19 -28 -22 -59 -7 -41 20 -40
44 1 44 13 0 18 -7 18 -25z m-112 -12 c-10 -2 -26 -2 -35 0 -10 3 -2 5 17 5
19 0 27 -2 18 -5z m2062 -3 c0 -5 -4 -10 -10 -10 -5 0 -10 5 -10 10 0 6 5 10
10 10 6 0 10 -4 10 -10z m-1991 -23 c32 -14 32 -27 0 -27 -10 0 -24 -6 -32
-14 -20 -20 -46 -4 -28 18 7 8 10 20 6 26 -9 14 16 13 54 -3z m-105 -18 c-3
-5 -10 -7 -15 -3 -5 3 -7 10 -3 15 3 5 10 7 15 3 5 -3 7 -10 3 -15z m56 -59
c0 -5 -7 -10 -15 -10 -8 0 -15 5 -15 10 0 6 7 10 15 10 8 0 15 -4 15 -10z
m-40 -24 c0 -27 -24 -53 -35 -36 -3 5 -3 16 2 23 4 6 8 15 9 20 3 15 4 17 14
17 6 0 10 -11 10 -24z m30 -31 c0 -8 -4 -15 -10 -15 -5 0 -10 7 -10 15 0 8 5
15 10 15 6 0 10 -7 10 -15z m2210 -385 c0 -5 -4 -10 -10 -10 -5 0 -10 5 -10
10 0 6 5 10 10 10 6 0 10 -4 10 -10z m-40 -25 c0 -8 -7 -15 -15 -15 -16 0 -20
12 -8 23 11 12 23 8 23 -8z m3840 -385 c0 -11 -4 -20 -10 -20 -5 0 -10 9 -10
20 0 11 5 20 10 20 6 0 10 -9 10 -20z m754 -36 c9 -3 16 -12 16 -20 0 -8 5
-14 10 -14 6 0 10 -7 10 -15 0 -18 36 -20 43 -2 2 6 8 -5 12 -26 4 -21 18 -46
31 -56 13 -10 24 -21 24 -24 0 -3 13 -25 29 -49 35 -52 47 -88 30 -88 -16 0
-172 162 -198 206 -12 19 -19 40 -16 45 4 5 -1 9 -9 9 -9 0 -16 9 -16 20 0 21
8 24 34 14z m-754 -24 c0 -11 -7 -20 -15 -20 -8 0 -15 9 -15 20 0 11 7 20 15
20 8 0 15 -9 15 -20z m337 -44 c-9 -26 -32 -9 -35 24 l-4 35 21 -24 c12 -14
20 -29 18 -35z m110 -22 c10 -26 -6 -28 -26 -3 -11 13 -20 28 -21 32 0 13 41
-13 47 -29z m160 6 c28 -33 18 -47 -12 -18 -13 13 -29 23 -36 23 -7 0 -14 5
-16 12 -8 22 41 9 64 -17z m-575 -59 c-3 -19 0 -22 16 -17 17 6 20 1 24 -33 2
-22 0 -48 -4 -58 -6 -15 -7 -15 -7 5 -1 12 -5 22 -11 22 -5 0 -10 9 -10 20 0
11 -6 20 -14 20 -9 0 -12 7 -9 20 3 11 0 20 -6 20 -6 0 -11 7 -11 16 0 9 7 14
18 12 11 -2 16 -11 14 -27z m635 -13 c-3 -8 -6 -5 -6 6 -1 11 2 17 5 13 3 -3
4 -12 1 -19z m-587 -154 c0 -8 -4 -12 -10 -9 -5 3 -10 10 -10 16 0 5 5 9 10 9
6 0 10 -7 10 -16z m-4976 -14 c35 -13 33 -27 -5 -35 -36 -8 -40 -6 -32 23 6
26 4 25 37 12z m356 -10 c0 -5 -4 -10 -10 -10 -5 0 -10 5 -10 10 0 6 5 10 10
10 6 0 10 -4 10 -10z m4593 -85 c4 -8 2 -17 -3 -20 -6 -4 -10 -4 -10 -1 0 2
-3 11 -6 20 -3 9 -2 16 4 16 5 0 12 -7 15 -15z m-266 -87 c-3 -8 -6 -5 -6 6
-1 11 2 17 5 13 3 -3 4 -12 1 -19z m-104 -61 c-4 -29 -10 -46 -17 -44 -19 6
-18 55 1 75 10 10 19 18 20 18 0 -1 -1 -23 -4 -49z m-4583 -47 c0 -5 -5 -10
-11 -10 -5 0 -7 5 -4 10 3 6 8 10 11 10 2 0 4 -4 4 -10z m57 -36 c-9 -9 -28 6
-21 18 4 6 10 6 17 -1 6 -6 8 -13 4 -17z m73 16 c0 -5 -5 -10 -11 -10 -5 0 -7
5 -4 10 3 6 8 10 11 10 2 0 4 -4 4 -10z m-30 -49 c0 -5 3 -16 6 -25 3 -9 1
-16 -5 -16 -6 0 -11 7 -11 15 0 7 -8 19 -17 24 -16 9 -16 10 5 11 12 0 22 -4
22 -9z m175 -29 c-8 -8 -25 10 -25 26 0 13 2 13 14 -4 8 -10 13 -21 11 -22z
m-165 -43 c0 -7 8 -18 18 -25 13 -10 14 -13 3 -14 -16 0 -51 28 -51 42 0 4 7
8 15 8 8 0 15 -5 15 -11z m470 -8 c0 -12 -29 -35 -36 -28 -11 10 5 37 21 37 8
0 15 -4 15 -9z m-280 -53 c0 -18 -17 -6 -34 25 l-19 32 26 -24 c15 -14 27 -28
27 -33z m96 -44 c-3 -9 -6 -20 -6 -25 0 -5 -11 -9 -25 -9 -29 0 -31 7 -8 32
20 23 48 24 39 2z m-673 -19 c-7 -21 -13 -19 -13 6 0 11 4 18 10 14 5 -3 7
-12 3 -20z m85 -7 c-6 -18 -28 -21 -28 -4 0 9 7 16 16 16 9 0 14 -5 12 -12z
m52 -238 c0 -5 -2 -10 -4 -10 -3 0 -8 5 -11 10 -3 6 -1 10 4 10 6 0 11 -4 11
-10z"/>
<path d="M2980 3906 c0 -8 5 -18 10 -21 6 -3 10 3 10 14 0 12 -4 21 -10 21 -5
0 -10 -6 -10 -14z"/>
<path d="M3010 3883 c0 -10 4 -25 10 -33 8 -12 10 -12 16 3 7 20 -1 47 -16 47
-5 0 -10 -8 -10 -17z"/>
<path d="M2540 3849 c0 -5 5 -7 10 -4 6 3 10 8 10 11 0 2 -4 4 -10 4 -5 0 -10
-5 -10 -11z"/>
<path d="M3108 3578 c9 -9 15 -9 24 0 9 9 7 12 -12 12 -19 0 -21 -3 -12 -12z"/>
<path d="M2840 3020 c0 -5 5 -10 10 -10 6 0 10 5 10 10 0 6 -4 10 -10 10 -5 0
-10 -4 -10 -10z"/>
<path d="M2782 2962 c-22 -43 -22 -47 -7 -59 35 -25 78 41 59 91 -11 27 -28
17 -52 -32z m33 -22 c-3 -5 -11 -10 -16 -10 -6 0 -7 5 -4 10 3 6 11 10 16 10
6 0 7 -4 4 -10z"/>
<path d="M2828 2873 c7 -3 16 -2 19 1 4 3 -2 6 -13 5 -11 0 -14 -3 -6 -6z"/>
<path d="M2760 2849 c0 -5 5 -7 10 -4 6 3 10 8 10 11 0 2 -4 4 -10 4 -5 0 -10
-5 -10 -11z"/>
<path d="M2972 2821 c-11 -7 -10 -10 3 -15 26 -10 35 -7 35 9 0 17 -18 19 -38
6z"/>
<path d="M5658 4053 c12 -2 30 -2 40 0 9 3 -1 5 -23 4 -22 0 -30 -2 -17 -4z"/>
<path d="M3692 2775 c-30 -16 -38 -25 -21 -25 15 1 55 28 48 33 -2 2 -14 -2
-27 -8z"/>
<path d="M3868 2782 c-10 -2 -18 -8 -18 -13 0 -13 27 -11 35 2 9 13 4 16 -17
11z"/>
<path d="M3925 2780 c3 -5 8 -10 11 -10 2 0 4 5 4 10 0 6 -5 10 -11 10 -5 0
-7 -4 -4 -10z"/>
<path d="M3800 2760 c0 -5 4 -10 9 -10 6 0 13 5 16 10 3 6 -1 10 -9 10 -9 0
-16 -4 -16 -10z"/>
<path d="M772 6328 c4 -9 -1 -23 -12 -33 -22 -20 -18 -35 9 -35 24 0 46 -26
31 -35 -6 -3 -8 -11 -5 -16 4 -5 -4 -9 -17 -9 -13 0 -30 -4 -38 -10 -12 -8
-12 -10 2 -15 9 -4 14 -13 11 -21 -3 -8 0 -14 6 -14 6 0 11 -9 11 -20 0 -16 7
-20 34 -20 18 0 39 7 46 15 7 8 9 15 5 15 -4 0 -2 6 4 13 6 8 8 17 4 20 -12
13 33 7 46 -5 11 -11 13 -10 9 2 -2 8 -28 21 -58 30 -47 14 -51 17 -36 29 15
12 14 15 -9 35 -14 12 -25 27 -25 33 0 14 28 25 35 13 3 -6 16 -5 32 1 14 5
34 7 45 3 17 -5 18 -3 9 15 -13 24 -29 27 -37 7 -6 -17 -69 -11 -93 8 -12 9
-13 8 -9 -6z m68 -164 c0 -2 -9 -8 -21 -14 -15 -9 -24 -8 -36 1 -13 12 -13 14
3 19 17 6 54 2 54 -6z"/>
<path d="M1050 6329 c0 -5 9 -9 20 -9 11 0 20 2 20 4 0 2 -9 6 -20 9 -11 3
-20 1 -20 -4z"/>
<path d="M655 6320 c3 -5 10 -10 16 -10 5 0 9 5 9 10 0 6 -7 10 -16 10 -8 0
-12 -4 -9 -10z"/>
<path d="M523 6304 c-3 -8 -16 -14 -29 -14 -13 0 -24 -4 -24 -9 0 -12 35 -23
78 -26 18 -1 38 -7 44 -13 7 -7 18 -12 26 -12 12 0 12 3 1 16 -10 12 -10 20
-1 35 7 11 10 24 7 29 -9 15 -96 9 -102 -6z m76 -21 c11 -9 -19 -24 -38 -18
-33 10 -27 37 7 29 15 -4 29 -9 31 -11z"/>
<path d="M664 6275 c-10 -25 7 -40 23 -20 7 11 13 22 13 27 0 14 -30 9 -36 -7z"/>
<path d="M875 6280 c-3 -5 -1 -10 4 -10 6 0 11 5 11 10 0 6 -2 10 -4 10 -3 0
-8 -4 -11 -10z"/>
<path d="M1095 6250 c3 -5 13 -10 21 -10 8 0 14 5 14 10 0 6 -9 10 -21 10 -11
0 -17 -4 -14 -10z"/>
<path d="M862 6224 c-11 -12 -10 -15 3 -20 17 -7 48 14 39 27 -8 13 -27 10
-42 -7z"/>
<path d="M1000 6230 c0 -5 10 -10 23 -10 18 0 19 2 7 10 -19 13 -30 13 -30 0z"/>
<path d="M1350 6210 c0 -5 7 -10 15 -10 8 0 15 5 15 10 0 6 -7 10 -15 10 -8 0
-15 -4 -15 -10z"/>
<path d="M5812 6195 l2 -24 23 21 c29 27 29 28 -2 28 -20 0 -24 -5 -23 -25z"/>
<path d="M945 6185 c0 -20 5 -25 25 -25 18 0 21 3 13 11 -6 6 -9 18 -6 25 3 9
-2 14 -13 14 -14 0 -19 -7 -19 -25z"/>
<path d="M686 6193 c-11 -11 -6 -23 8 -23 8 0 17 4 20 9 7 10 -19 23 -28 14z"/>
<path d="M1510 6190 c0 -5 5 -10 10 -10 6 0 10 5 10 10 0 6 -4 10 -10 10 -5 0
-10 -4 -10 -10z"/>
<path d="M1130 6170 c0 -5 5 -10 10 -10 6 0 10 5 10 10 0 6 -4 10 -10 10 -5 0
-10 -4 -10 -10z"/>
<path d="M1207 6163 c-7 -6 11 -33 22 -33 4 0 7 9 7 20 0 19 -16 27 -29 13z"/>
<path d="M691 6144 c13 -16 29 -19 29 -5 0 5 -9 11 -21 14 -16 4 -18 3 -8 -9z"/>
<path d="M628 6131 c-25 -25 -22 -34 8 -27 15 4 32 2 40 -5 25 -20 27 -2 3 25
-26 30 -28 31 -51 7z"/>
<path d="M990 6130 c0 -18 3 -19 20 -8 14 9 16 14 7 20 -20 13 -27 9 -27 -12z"/>
<path d="M315 6130 c3 -5 8 -10 11 -10 2 0 4 5 4 10 0 6 -5 10 -11 10 -5 0 -7
-4 -4 -10z"/>
<path d="M350 6110 c0 -5 5 -10 10 -10 6 0 10 5 10 10 0 6 -4 10 -10 10 -5 0
-10 -4 -10 -10z"/>
<path d="M585 6110 c3 -5 8 -10 11 -10 2 0 4 5 4 10 0 6 -5 10 -11 10 -5 0 -7
-4 -4 -10z"/>
<path d="M853 6060 c0 -25 2 -35 4 -22 2 12 2 32 0 45 -2 12 -4 2 -4 -23z"/>
<path d="M930 6080 c0 -5 7 -10 15 -10 8 0 15 5 15 10 0 6 -7 10 -15 10 -8 0
-15 -4 -15 -10z"/>
<path d="M1150 6080 c0 -5 7 -7 15 -4 8 4 15 8 15 10 0 2 -7 4 -15 4 -8 0 -15
-4 -15 -10z"/>
<path d="M600 6069 c0 -7 -6 -17 -14 -23 -24 -18 -24 -51 -1 -51 11 -1 25 -4
31 -8 6 -3 19 0 30 7 15 12 16 16 5 30 -7 9 -18 16 -23 16 -6 0 -5 -7 2 -15
10 -13 9 -15 -8 -15 -28 0 -39 20 -19 35 19 13 23 35 7 35 -5 0 -10 -5 -10
-11z"/>
<path d="M731 6043 c0 -25 1 -26 9 -8 12 27 12 35 0 35 -5 0 -10 -12 -9 -27z"/>
<path d="M7375 6060 c-4 -6 -11 -8 -16 -4 -14 8 -49 -25 -49 -47 0 -11 -6 -16
-17 -13 -10 2 -25 -2 -33 -9 -40 -33 -51 -57 -56 -118 -3 -37 -12 -71 -21 -81
-14 -16 -17 -15 -44 13 -28 29 -49 37 -49 20 0 -5 -12 -11 -27 -13 -19 -2 -32
-12 -41 -30 -7 -16 -17 -28 -21 -28 -9 0 -31 -77 -31 -108 0 -10 8 -28 18 -40
18 -20 20 -21 42 -4 13 9 45 38 73 65 27 26 51 47 53 47 1 0 2 -9 1 -20 -1
-11 -4 -20 -8 -20 -4 0 -9 -8 -13 -17 -6 -21 -28 -56 -39 -64 -4 -3 -1 -23 7
-45 l14 -39 15 34 c9 21 16 29 19 20 5 -12 9 -12 27 -1 18 10 26 10 37 1 11
-9 14 -8 14 4 0 15 28 27 69 27 13 0 30 8 37 18 11 14 16 15 33 5 12 -7 37
-13 57 -13 61 0 74 -13 72 -72 0 -42 -7 -62 -34 -101 -36 -53 -47 -92 -42
-152 2 -33 7 -41 26 -43 13 -2 22 2 22 10 0 19 48 61 60 53 6 -4 10 -14 9 -23
-1 -10 -1 -30 0 -47 1 -22 4 -26 10 -16 5 8 16 11 26 7 9 -3 25 -1 36 4 19 10
19 23 17 348 l-3 336 -33 10 c-23 6 -34 16 -38 35 -13 62 -27 82 -70 101 -46
22 -99 26 -109 10z"/>
<path d="M930 6050 c0 -5 13 -10 29 -10 17 0 33 5 36 10 4 6 -8 10 -29 10 -20
0 -36 -4 -36 -10z"/>
<path d="M685 6030 c3 -5 8 -10 11 -10 2 0 4 5 4 10 0 6 -5 10 -11 10 -5 0 -7
-4 -4 -10z"/>
<path d="M908 6023 c7 -3 16 -2 19 1 4 3 -2 6 -13 5 -11 0 -14 -3 -6 -6z"/>
<path d="M890 5979 c0 -5 5 -7 10 -4 6 3 10 8 10 11 0 2 -4 4 -10 4 -5 0 -10
-5 -10 -11z"/>
<path d="M940 5945 c0 -8 5 -15 10 -15 6 0 10 7 10 15 0 8 -4 15 -10 15 -5 0
-10 -7 -10 -15z"/>
<path d="M1010 5949 c0 -5 11 -9 25 -9 14 0 25 2 25 4 0 2 -11 6 -25 8 -14 3
-25 1 -25 -3z"/>
<path d="M480 5935 c-8 -10 -10 -19 -4 -25 5 -5 14 1 21 16 12 27 2 32 -17 9z"/>
<path d="M530 5940 c0 -5 16 -10 35 -10 19 0 35 5 35 10 0 6 -16 10 -35 10
-19 0 -35 -4 -35 -10z"/>
<path d="M490 5830 c0 -5 4 -10 9 -10 6 0 13 5 16 10 3 6 -1 10 -9 10 -9 0
-16 -4 -16 -10z"/>
<path d="M541 5818 c-2 -14 19 -58 28 -58 5 0 11 12 14 26 4 21 1 25 -14 21
-10 -3 -20 0 -23 7 -2 6 -5 8 -5 4z"/>
<path d="M260 5800 c0 -5 5 -10 10 -10 6 0 10 5 10 10 0 6 -4 10 -10 10 -5 0
-10 -4 -10 -10z"/>
<path d="M290 5774 c0 -11 5 -14 16 -10 9 3 23 6 32 7 14 0 13 2 -3 9 -31 13
-45 11 -45 -6z"/>
<path d="M498 5764 c24 -17 39 -14 27 5 -3 6 -16 11 -28 11 l-21 0 22 -16z"/>
<path d="M318 5743 c7 -3 16 -2 19 1 4 3 -2 6 -13 5 -11 0 -14 -3 -6 -6z"/>
<path d="M494 5724 c3 -8 -1 -31 -9 -50 -12 -30 -12 -34 2 -34 9 0 13 6 9 15
-3 9 0 15 10 15 12 0 15 6 10 23 -3 12 -6 28 -6 35 0 6 -5 12 -11 12 -6 0 -8
-7 -5 -16z"/>
<path d="M290 5715 c0 -20 28 -31 43 -16 13 13 10 16 -20 25 -17 6 -23 3 -23
-9z"/>
<path d="M310 5670 c-11 -7 -12 -12 -3 -21 13 -13 33 -4 33 17 0 16 -9 18 -30
4z"/>
<path d="M597 5663 c-11 -3 -16 -11 -13 -19 3 -8 1 -14 -5 -14 -6 0 -7 -4 -4
-10 10 -17 25 -11 25 10 0 11 7 20 15 20 8 0 15 5 15 10 0 10 -3 11 -33 3z"/>
<path d="M6040 5663 c0 -7 -5 -13 -10 -13 -6 0 -30 -9 -52 -20 -23 -11 -46
-20 -50 -20 -9 0 -83 -47 -108 -68 -8 -7 -60 -42 -115 -76 -141 -89 -176 -126
-121 -126 14 0 28 -4 31 -10 3 -5 19 -10 35 -10 16 0 32 5 35 10 3 6 17 10 30
10 13 0 26 4 29 9 3 4 21 11 40 14 19 3 62 19 96 36 34 17 67 31 74 31 6 0 16
8 23 19 6 10 32 28 56 40 36 17 48 30 62 66 l17 45 -36 37 c-20 21 -36 32 -36
26z"/>
<path d="M503 5615 c-14 -10 -20 -22 -16 -32 4 -10 -3 -22 -18 -34 -26 -20
-18 -40 9 -22 10 6 32 14 50 18 18 3 32 11 32 17 0 6 -10 8 -24 4 -31 -8 -45
30 -15 39 10 4 19 11 19 16 0 13 -12 11 -37 -6z"/>
<path d="M587 5593 c-11 -11 -8 -55 3 -48 6 4 8 15 5 26 -5 14 -2 17 9 13 8
-3 23 -1 33 5 15 9 14 10 -13 11 -17 0 -34 -3 -37 -7z"/>
<path d="M5330 5586 c0 -10 28 -13 41 -5 10 6 7 9 -13 9 -16 0 -28 -2 -28 -4z"/>
<path d="M315 5570 c4 -6 11 -8 16 -5 14 9 11 15 -7 15 -8 0 -12 -5 -9 -10z"/>
<path d="M302 5513 c-26 -5 -20 -23 9 -23 10 0 19 7 19 15 0 8 -1 14 -2 14 -2
-1 -13 -4 -26 -6z"/>
<path d="M495 5500 c3 -5 10 -10 16 -10 5 0 9 5 9 10 0 6 -7 10 -16 10 -8 0
-12 -4 -9 -10z"/>
<path d="M545 5489 c-28 -17 -28 -19 -7 -19 12 0 22 -5 22 -11 0 -6 -9 -8 -20
-4 -11 4 -20 2 -20 -4 0 -6 -9 -11 -19 -11 -11 0 -23 -5 -27 -12 -5 -8 -2 -9
11 -5 9 4 24 2 31 -4 10 -8 17 -7 29 5 9 9 29 16 44 16 15 0 35 8 44 18 19 21
11 38 -10 21 -10 -9 -13 -7 -13 10 0 26 -24 27 -65 0z"/>
<path d="M5240 5495 c-16 -19 -1 -52 21 -47 7 2 16 -3 20 -10 7 -10 11 -10 21
0 10 10 10 15 1 20 -14 9 -5 26 17 35 9 3 4 6 -12 6 -14 1 -33 3 -41 6 -7 3
-20 -1 -27 -10z"/>
<path d="M200 5474 c0 -8 5 -12 10 -9 6 3 10 10 10 16 0 5 -4 9 -10 9 -5 0
-10 -7 -10 -16z"/>
<path d="M700 5456 c6 -8 18 -12 26 -9 23 9 16 23 -12 23 -22 0 -24 -2 -14
-14z"/>
<path d="M598 5427 c-31 -12 -35 -22 -13 -31 9 -3 12 -12 8 -22 -4 -12 -1 -15
18 -12 20 2 25 10 27 41 3 40 2 41 -40 24z"/>
<path d="M7260 5420 c0 -5 4 -10 9 -10 6 0 13 5 16 10 3 6 -1 10 -9 10 -9 0
-16 -4 -16 -10z"/>
<path d="M790 5406 c0 -9 5 -16 10 -16 6 0 10 4 10 9 0 6 -4 13 -10 16 -5 3
-10 -1 -10 -9z"/>
<path d="M513 5363 c-4 -10 -15 -24 -25 -31 -17 -13 -17 -14 -1 -37 15 -20 24
-23 52 -18 31 5 33 4 25 -18 -4 -13 -8 -34 -9 -46 0 -15 -6 -23 -17 -23 -10 0
-18 -4 -18 -10 0 -5 18 -10 40 -10 35 0 40 3 39 23 0 12 -3 16 -6 10 -2 -7 -9
-13 -14 -13 -12 0 -12 37 1 45 16 10 12 42 -6 49 -9 3 -29 6 -45 6 -34 0 -30
19 4 21 17 1 18 2 5 6 -21 5 -22 16 -8 44 8 13 7 19 0 19 -6 0 -14 -8 -17 -17z"/>
<path d="M263 5312 c-7 -17 13 -32 43 -32 20 0 41 27 29 38 -12 12 -67 8 -72
-6z"/>
<path d="M600 5301 c0 -18 2 -19 30 -5 17 9 30 17 30 20 0 2 -13 4 -30 4 -23
0 -30 -5 -30 -19z"/>
<path d="M695 5310 c-3 -5 -1 -10 4 -10 6 0 11 5 11 10 0 6 -2 10 -4 10 -3 0
-8 -4 -11 -10z"/>
<path d="M5220 5310 c0 -5 5 -10 10 -10 6 0 10 5 10 10 0 6 -4 10 -10 10 -5 0
-10 -4 -10 -10z"/>
<path d="M610 5258 c0 -4 9 -8 19 -8 11 0 26 -3 35 -6 9 -3 16 -2 16 4 0 5
-16 12 -35 14 -19 2 -35 0 -35 -4z"/>
<path d="M658 5213 c7 -3 16 -2 19 1 4 3 -2 6 -13 5 -11 0 -14 -3 -6 -6z"/>
<path d="M300 5181 c0 -13 43 -22 55 -10 7 7 4 8 -7 4 -11 -4 -18 -2 -18 4 0
6 -7 11 -15 11 -8 0 -15 -4 -15 -9z"/>
<path d="M385 5160 c-3 -5 -1 -10 4 -10 6 0 11 5 11 10 0 6 -2 10 -4 10 -3 0
-8 -4 -11 -10z"/>
<path d="M430 5130 c0 -5 5 -10 11 -10 5 0 7 5 4 10 -3 6 -8 10 -11 10 -2 0
-4 -4 -4 -10z"/>
<path d="M7605 5083 c-11 -18 -23 -33 -27 -33 -5 0 -8 -9 -8 -20 0 -11 -4 -20
-10 -20 -5 0 -10 -7 -10 -15 0 -8 -4 -15 -10 -15 -5 0 -10 -9 -10 -19 0 -11
-4 -23 -10 -26 -5 -3 -10 -11 -10 -16 0 -15 33 6 80 51 39 38 41 42 38 92 l-3
53 -20 -32z"/>
<path d="M310 5089 c0 -5 5 -7 10 -4 6 3 10 8 10 11 0 2 -4 4 -10 4 -5 0 -10
-5 -10 -11z"/>
<path d="M550 5090 c20 -13 53 -13 45 0 -3 6 -18 10 -33 10 -21 0 -24 -2 -12
-10z"/>
<path d="M494 5006 c-4 -10 -2 -22 4 -28 8 -8 13 -7 18 6 4 10 2 22 -4 28 -8
8 -13 7 -18 -6z"/>
<path d="M428 4970 c-19 -3 -25 -9 -20 -17 11 -17 68 -28 76 -14 4 6 1 11 -8
11 -8 0 -16 6 -18 13 -2 8 -13 11 -30 7z"/>
<path d="M0 4946 c0 -9 40 -13 46 -5 3 5 -6 9 -20 9 -14 0 -26 -2 -26 -4z"/>
<path d="M520 4930 c0 -5 9 -10 21 -10 11 0 17 5 14 10 -3 6 -13 10 -21 10 -8
0 -14 -4 -14 -10z"/>
<path d="M0 4891 c0 -12 6 -21 15 -21 8 0 15 3 15 6 0 3 -7 12 -15 20 -13 14
-15 13 -15 -5z"/>
<path d="M5871 4326 c-19 -21 -20 -24 -6 -30 22 -8 70 -8 78 1 7 7 -31 53 -43
53 -4 0 -17 -11 -29 -24z"/>
<path d="M6407 2844 c-9 -9 5 -42 19 -48 10 -4 14 2 14 18 0 22 -21 41 -33 30z"/>
<path d="M6300 2580 c0 -5 6 -10 14 -10 8 0 18 5 21 10 3 6 -3 10 -14 10 -12
0 -21 -4 -21 -10z"/>
<path d="M6220 2356 c0 -8 7 -16 15 -20 17 -6 18 -4 9 18 -8 20 -24 21 -24 2z"/>
<path d="M6190 2319 c0 -5 5 -7 10 -4 6 3 10 8 10 11 0 2 -4 4 -10 4 -5 0 -10
-5 -10 -11z"/>
<path d="M6051 2281 c-11 -7 -10 -11 7 -20 11 -6 33 -11 48 -11 25 0 26 2 14
14 -21 19 -52 27 -69 17z"/>
<path d="M6080 2210 c0 -6 12 -15 28 -21 15 -6 44 -20 65 -31 30 -16 37 -17
37 -5 0 20 -21 36 -59 43 -17 4 -34 11 -37 15 -7 12 -34 11 -34 -1z"/>
<path d="M5851 2171 c-10 -6 -10 -10 -1 -16 13 -8 24 -1 19 14 -3 6 -10 7 -18
2z"/>
<path d="M6040 2170 c0 -5 9 -10 19 -10 11 0 23 5 26 10 4 6 -5 10 -19 10 -14
0 -26 -4 -26 -10z"/>
<path d="M6019 2158 c-7 -27 -2 -48 13 -57 15 -9 20 -8 25 5 7 18 -6 45 -25
52 -7 2 -12 2 -13 0z"/>
<path d="M6100 2151 c0 -5 5 -13 10 -16 6 -3 10 -2 10 4 0 5 -4 13 -10 16 -5
3 -10 2 -10 -4z"/>
<path d="M5780 2095 c-16 -19 -5 -34 12 -17 7 7 27 12 45 12 18 0 33 5 33 10
0 16 -76 12 -90 -5z"/>
<path d="M6155 2089 c-16 -10 -25 -19 -20 -20 6 -1 15 -2 20 -3 6 0 26 -13 46
-28 20 -16 39 -28 42 -28 14 0 6 38 -9 44 -8 3 -12 11 -9 16 8 13 -13 40 -29
39 -6 0 -24 -9 -41 -20z"/>
<path d="M5949 2059 c-12 -24 -25 -139 -15 -139 11 0 46 40 46 53 0 6 7 25 15
41 9 16 13 37 10 48 -8 25 -42 23 -56 -3z"/>
<path d="M6114 2009 c-3 -6 -1 -14 5 -18 6 -4 16 -23 21 -41 7 -26 6 -37 -5
-50 -16 -18 -20 -40 -7 -40 22 1 37 24 47 73 10 50 9 55 -12 70 -25 20 -39 21
-49 6z"/>
<path d="M5867 1890 c-4 -17 -2 -18 14 -9 22 11 25 29 5 29 -7 0 -16 -9 -19
-20z"/>
<path d="M6300 1855 c0 -8 5 -15 10 -15 6 0 10 7 10 15 0 8 -4 15 -10 15 -5 0
-10 -7 -10 -15z"/>
<path d="M6105 1820 c-4 -6 -2 -17 4 -24 7 -9 7 -16 0 -23 -8 -8 -7 -13 1 -18
19 -12 33 11 25 44 -7 31 -19 39 -30 21z"/>
<path d="M6198 1814 c-4 -22 13 -64 26 -64 5 0 18 -7 28 -17 28 -25 22 2 -9
45 -40 55 -41 56 -45 36z"/>
<path d="M6151 1734 c0 -11 3 -14 6 -6 3 7 2 16 -1 19 -3 4 -6 -2 -5 -13z"/>
<path d="M5998 1693 c7 -3 16 -2 19 1 4 3 -2 6 -13 5 -11 0 -14 -3 -6 -6z"/>
<path d="M5672 1596 c-12 -26 -8 -33 36 -56 21 -10 27 -9 48 11 24 23 32 49
15 49 -5 0 -19 -12 -30 -26 -11 -14 -25 -23 -31 -19 -15 9 -12 25 5 25 18 0
19 12 3 28 -18 18 -34 14 -46 -12z"/>
<path d="M5960 1566 c0 -43 3 -56 15 -56 11 0 15 11 15 41 0 23 -7 47 -15 55
-13 14 -15 9 -15 -40z"/>
<path d="M6702 1611 c2 -7 7 -12 11 -12 12 1 9 15 -3 20 -7 2 -11 -2 -8 -8z"/>
<path d="M6922 1559 c2 -7 10 -15 17 -17 8 -3 12 1 9 9 -2 7 -10 15 -17 17 -8
3 -12 -1 -9 -9z"/>
<path d="M6115 1542 c-8 -21 6 -69 26 -91 11 -11 19 -24 19 -29 0 -5 11 -19
25 -32 l25 -23 0 21 c0 12 -4 22 -9 22 -12 0 -10 43 2 51 5 4 -2 17 -16 30
-18 15 -25 29 -21 43 4 17 0 21 -20 21 -14 0 -28 -6 -31 -13z"/>
<path d="M5830 1510 c0 -14 38 -32 45 -21 6 10 1 14 -27 24 -10 4 -18 2 -18
-3z"/>
<path d="M5720 1491 c0 -11 -4 -23 -10 -26 -19 -12 -11 -37 11 -33 18 2 22 10
23 41 1 23 -4 37 -11 37 -7 0 -13 -9 -13 -19z"/>
<path d="M7030 1422 c0 -5 7 -13 16 -16 10 -4 14 -1 12 6 -5 15 -28 23 -28 10z"/>
<path d="M6456 1373 c-3 -3 -3 -10 0 -14 7 -12 34 -11 34 0 0 11 -26 22 -34
14z"/>
<path d="M6052 1330 c0 -14 2 -19 5 -12 2 6 2 18 0 25 -3 6 -5 1 -5 -13z"/>
<path d="M6466 1255 c4 -8 7 -15 9 -15 2 0 5 7 9 15 3 9 0 15 -9 15 -9 0 -12
-6 -9 -15z"/>
<path d="M7150 1100 c0 -6 7 -13 15 -16 8 -4 15 -12 15 -20 0 -8 5 -14 10 -14
14 0 12 12 -6 38 -16 23 -34 29 -34 12z"/>
<path d="M660 810 c-13 -8 -12 -10 3 -10 9 0 17 5 17 10 0 12 -1 12 -20 0z"/>
<path d="M930 739 c0 -5 5 -7 10 -4 6 3 10 8 10 11 0 2 -4 4 -10 4 -5 0 -10
-5 -10 -11z"/>
<path d="M1110 720 c0 -5 7 -7 15 -4 8 4 15 8 15 10 0 2 -7 4 -15 4 -8 0 -15
-4 -15 -10z"/>
<path d="M1205 480 c-3 -5 1 -10 9 -10 9 0 16 5 16 10 0 6 -4 10 -9 10 -6 0
-13 -4 -16 -10z"/>
<path d="M1206 425 c4 -8 8 -15 10 -15 2 0 4 7 4 15 0 8 -4 15 -10 15 -5 0 -7
-7 -4 -15z"/>
</g>
</svg>
